<?xml version="1.0" standalone="no"?>
<!DOCTYPE svg PUBLIC "-//W3C//DTD SVG 1.1//EN" "http://www.w3.org/Graphics/SVG/1.1/DTD/svg11.dtd" >
<svg xmlns="http://www.w3.org/2000/svg">
<metadata>Generated by IcoMoon</metadata>
<defs>
<font id="icomoon" horiz-adv-x="1024">
<font-face units-per-em="1024" ascent="960" descent="-64" />
<missing-glyph horiz-adv-x="1024" />
<glyph unicode="&#x20;" horiz-adv-x="512" d="" />
<glyph unicode="&#xe900;" glyph-name="loader" d="M469.333 853.334v-170.667c0-23.552 19.115-42.667 42.667-42.667s42.667 19.115 42.667 42.667v170.667c0 23.552-19.115 42.667-42.667 42.667s-42.667-19.115-42.667-42.667zM469.333 170.667v-170.667c0-23.552 19.115-42.667 42.667-42.667s42.667 19.115 42.667 42.667v170.667c0 23.552-19.115 42.667-42.667 42.667s-42.667-19.115-42.667-42.667zM180.181 698.155l120.747-120.747c16.683-16.683 43.691-16.683 60.331 0s16.683 43.691 0 60.331l-120.747 120.747c-16.683 16.683-43.691 16.683-60.331 0s-16.683-43.691 0-60.331zM662.741 215.595l120.747-120.747c16.683-16.683 43.691-16.683 60.331 0s16.683 43.691 0 60.331l-120.747 120.747c-16.683 16.683-43.691 16.683-60.331 0s-16.683-43.691 0-60.331zM85.333 384h170.667c23.552 0 42.667 19.115 42.667 42.667s-19.115 42.667-42.667 42.667h-170.667c-23.552 0-42.667-19.115-42.667-42.667s19.115-42.667 42.667-42.667zM768 384h170.667c23.552 0 42.667 19.115 42.667 42.667s-19.115 42.667-42.667 42.667h-170.667c-23.552 0-42.667-19.115-42.667-42.667s19.115-42.667 42.667-42.667zM240.512 94.848l120.747 120.747c16.683 16.683 16.683 43.691 0 60.331s-43.691 16.683-60.331 0l-120.747-120.747c-16.683-16.683-16.683-43.691 0-60.331s43.691-16.683 60.331 0zM723.072 577.408l120.747 120.747c16.683 16.683 16.683 43.691 0 60.331s-43.691 16.683-60.331 0l-120.747-120.747c-16.683-16.683-16.683-43.691 0-60.331s43.691-16.683 60.331 0z" />
<glyph unicode="&#xe901;" glyph-name="gamepad" horiz-adv-x="1097" d="M475.429 329.143v73.143c0 10.286-8 18.286-18.286 18.286h-109.714v109.714c0 10.286-8 18.286-18.286 18.286h-73.143c-10.286 0-18.286-8-18.286-18.286v-109.714h-109.714c-10.286 0-18.286-8-18.286-18.286v-73.143c0-10.286 8-18.286 18.286-18.286h109.714v-109.714c0-10.286 8-18.286 18.286-18.286h73.143c10.286 0 18.286 8 18.286 18.286v109.714h109.714c10.286 0 18.286 8 18.286 18.286zM804.571 292.571c0 40.571-32.571 73.143-73.143 73.143s-73.143-32.571-73.143-73.143 32.571-73.143 73.143-73.143 73.143 32.571 73.143 73.143zM950.857 438.857c0 40.571-32.571 73.143-73.143 73.143s-73.143-32.571-73.143-73.143 32.571-73.143 73.143-73.143 73.143 32.571 73.143 73.143zM1097.143 365.714c0-161.714-130.857-292.571-292.571-292.571-74.286 0-141.714 28-193.143 73.143h-125.714c-51.429-45.143-118.857-73.143-193.143-73.143-161.714 0-292.571 130.857-292.571 292.571s130.857 292.571 292.571 292.571h512c161.714 0 292.571-130.857 292.571-292.571z" />
<glyph unicode="&#xe902;" glyph-name="trophy" horiz-adv-x="951" d="M261.714 446.286c-24 52.571-42.286 122.286-42.286 212h-146.286v-54.857c0-56 76-133.714 188.571-157.143zM877.714 603.428v54.857h-146.286c0-89.714-18.286-159.429-42.286-212 112.571 23.429 188.571 101.143 188.571 157.143zM950.857 676.571v-73.143c0-108.571-131.429-228.571-309.714-237.143-22.857-29.143-44-46.286-54.286-54.286-30.286-27.429-38.286-56-38.286-92.571s18.286-73.143 73.143-73.143 109.714-36.571 109.714-91.429v-36.571c0-10.286-8-18.286-18.286-18.286h-475.429c-10.286 0-18.286 8-18.286 18.286v36.571c0 54.857 54.857 91.429 109.714 91.429s73.143 36.571 73.143 73.143-8 65.143-38.286 92.571c-10.286 8-31.429 25.143-54.286 54.286-178.286 8.571-309.714 128.571-309.714 237.143v73.143c0 30.286 24.571 54.857 54.857 54.857h164.571v54.857c0 50.286 41.143 91.429 91.429 91.429h329.143c50.286 0 91.429-41.143 91.429-91.429v-54.857h164.571c30.286 0 54.857-24.571 54.857-54.857z" />
<glyph unicode="&#xe903;" glyph-name="security" d="M512 896.667l384-172v-256q0-178-110-325t-274-187q-164 40-274 187t-110 325v256zM512 426.667v-382q118 38 200 143t98 239h-298zM512 426.667v376l-298-132v-244h298z" />
<glyph unicode="&#xe904;" glyph-name="award-fill" horiz-adv-x="512" d="M256 320c-45.12 0-87.744 9.248-128 23.552v-407.552l128 128 128-128v407.552c-40.256-14.304-82.88-23.552-128-23.552zM0 704c0 141.385 114.615 256 256 256s256-114.615 256-256c0-141.385-114.615-256-256-256s-256 114.615-256 256z" />
<glyph unicode="&#xe905;" glyph-name="filter_alt" d="M182.016 720q25.984-32 57.984-73.984t64.981-84.011 59.989-77.995 43.989-57.003l16.981-20.992v-256q0-18.005 13.013-31.019t31.019-13.013h84.011q18.005 0 31.019 13.013t13.013 31.019v256l16.981 20.992t43.989 57.003 59.989 77.995 64.981 84.011 57.984 73.984q11.989 13.995 9.984 29.995t-13.995 27.989-29.995 11.989h-592q-18.005 0-29.995-11.989t-13.995-27.989 9.984-29.995z" />
<glyph unicode="&#xe906;" glyph-name="account_balance_wallet" d="M681.984 384q25.984 0 45.013 18.005t18.987 45.995-18.987 45.995-45.013 18.005-45.013-18.005-18.987-45.995 18.987-45.995 45.013-18.005zM512 278.016v340.011h425.984v-340.011h-425.984zM896 192v-41.984q0-34.005-25.984-59.989t-59.989-25.984h-596.011q-36.011 0-61.013 25.003t-25.003 61.013v596.011q0 36.011 25.003 61.013t61.013 25.003h596.011q34.005 0 59.989-25.984t25.984-59.989v-41.984h-384q-36.011 0-61.013-25.003t-25.003-61.013v-340.011q0-36.011 25.003-61.013t61.013-25.003h384z" />
<glyph unicode="&#xe907;" glyph-name="add" d="M809.984 406.016h-256v-256h-84.011v256h-256v84.011h256v256h84.011v-256h256v-84.011z" />
<glyph unicode="&#xe908;" glyph-name="arrow_downward" d="M854.016 448l-342.016-342.016-342.016 342.016 61.995 59.989 237.995-237.995v520.021h84.011v-520.021l240 237.995z" />
<glyph unicode="&#xe909;" glyph-name="arrow-down2" d="M877.248 338.752l-320-320c-24.992-24.992-65.504-24.992-90.496 0l-320 320c-24.992 24.992-24.992 65.504 0 90.496s65.504 24.992 90.496 0l210.752-210.752v613.504c0 35.36 28.64 64 64 64s64-28.64 64-64v-613.504l210.752 210.752c12.48 12.48 28.864 18.752 45.248 18.752s32.768-6.24 45.248-18.752c24.992-24.992 24.992-65.504 0-90.496z" />
<glyph unicode="&#xe90a;" glyph-name="arrow-down-right2" d="M146.752 722.752l530.752-530.752h-229.472c-35.36 0-64-28.64-64-64s28.64-64 64-64h384c25.888 0 49.216 15.584 59.136 39.52 3.296 7.936 4.832 16.256 4.832 24.48h0.032v384c0 35.36-28.64 64-64 64s-64-28.64-64-64v-229.504l-530.752 530.752c-12.512 12.512-28.864 18.752-45.248 18.752s-32.768-6.24-45.248-18.752c-24.992-24.992-24.992-65.504 0-90.496z" />
<glyph unicode="&#xe90b;" glyph-name="arrow-up" d="M554.667 721.664l-200.832-200.832c-16.683-16.683-16.683-43.648 0-60.331s43.648-16.683 60.331 0l97.835 97.835v-323.669c0-23.552 19.072-42.667 42.667-42.667s42.667 19.115 42.667 42.667v323.669l97.835-97.835c8.32-8.32 19.243-12.501 30.165-12.501s21.845 4.181 30.165 12.501c16.683 16.683 16.683 43.648 0 60.331l-200.832 200.832z" />
<glyph unicode="&#xe90c;" glyph-name="business_center" d="M598.016 662.016v84.011h-171.989v-84.011h171.989zM854.016 662.016q34.005 0 59.008-25.984t25.003-59.989v-128q0-34.005-25.003-59.989t-59.008-25.984h-256v86.016h-171.989v-86.016h-256q-36.011 0-59.989 25.003t-24.021 61.013v128q0 34.005 25.003 59.989t59.008 25.984h169.984v84.011l86.016 86.016h169.984l86.016-86.016v-84.011h171.989zM425.984 278.016h171.989v41.984h297.984v-169.984q0-36.011-25.003-61.013t-61.013-25.003h-596.011q-36.011 0-61.013 25.003t-25.003 61.013v169.984h297.984v-41.984z" />
<glyph unicode="&#xe90d;" glyph-name="chain" horiz-adv-x="951" d="M832 265.143c0 14.848-5.705 28.562-16.018 38.839l-118.857 118.857c-10.277 10.277-24.576 16.018-38.839 16.018-16.567 0-29.696-6.29-41.143-18.286 18.871-18.871 41.143-34.853 41.143-64 0-30.281-24.576-54.857-54.857-54.857-29.147 0-45.129 22.272-64 41.143-11.995-11.447-18.871-24.576-18.871-41.728 0-14.299 5.705-28.562 16.018-38.839l117.723-118.272c10.277-10.277 24.576-15.433 38.839-15.433s28.562 5.157 38.839 14.848l84.005 83.419c10.277 10.277 16.018 23.991 16.018 38.29zM430.299 668.014c0 14.299-5.705 28.562-16.018 38.839l-117.723 118.272c-10.277 10.277-24.576 16.018-38.839 16.018s-28.562-5.705-38.839-15.433l-84.005-83.419c-10.277-10.277-16.018-23.991-16.018-38.29 0-14.848 5.705-28.562 16.018-38.839l118.857-118.857c10.277-10.277 24.576-15.433 38.839-15.433 16.567 0 29.696 5.705 41.143 17.701-18.871 18.871-41.143 34.853-41.143 64 0 30.281 24.576 54.857 54.857 54.857 29.147 0 45.129-22.272 64-41.143 11.995 11.447 18.871 24.576 18.871 41.728zM941.714 265.143c0-43.447-17.701-85.723-48.567-116.005l-84.005-83.419c-30.866-30.866-72.558-47.433-116.005-47.433-43.995 0-85.723 17.152-116.553 48.567l-117.723 118.272c-30.866 30.866-47.433 72.558-47.433 116.005 0 45.129 18.286 87.991 50.286 119.442l-50.286 50.286c-31.415-32-73.728-50.286-118.857-50.286-43.447 0-85.723 17.152-116.553 48.018l-118.857 118.857c-31.415 31.415-48.018 72.558-48.018 116.553 0 43.447 17.701 85.723 48.567 116.005l84.005 83.419c30.866 30.866 72.558 47.433 116.005 47.433 43.995 0 85.723-17.152 116.553-48.567l117.723-118.272c30.866-30.866 47.433-72.558 47.433-116.005 0-45.129-18.286-87.991-50.286-119.442l50.286-50.286c31.415 32 73.728 50.286 118.857 50.286 43.447 0 85.723-17.152 116.553-48.018l118.857-118.857c31.415-31.415 48.018-72.558 48.018-116.553z" />
<glyph unicode="&#xe90e;" glyph-name="chain-broken" horiz-adv-x="951" d="M250.843 233.728l-146.286-146.286c-3.986-3.438-8.558-5.157-13.129-5.157s-9.143 1.719-13.129 5.157c-6.839 7.424-6.839 18.871 0 26.295l146.286 146.286c7.424 6.839 18.871 6.839 26.295 0 6.839-7.424 6.839-18.871 0-26.295zM347.429 210.286v-182.857c0-10.277-8.009-18.286-18.286-18.286s-18.286 8.009-18.286 18.286v182.857c0 10.277 8.009 18.286 18.286 18.286s18.286-8.009 18.286-18.286zM219.429 338.286c0-10.277-8.009-18.286-18.286-18.286h-182.857c-10.277 0-18.286 8.009-18.286 18.286s8.009 18.286 18.286 18.286h182.857c10.277 0 18.286-8.009 18.286-18.286zM941.714 265.143c0-43.995-17.152-85.138-48.567-116.005l-84.005-83.419c-30.866-30.866-72.009-47.433-116.005-47.433s-85.723 17.152-116.553 48.567l-190.866 191.415c-9.728 9.728-17.152 20.553-23.991 32l136.558 10.277 156.014-156.562c20.553-20.553 57.161-21.138 77.714-0.585l84.005 83.419c10.277 10.277 16.018 23.991 16.018 38.29 0 14.848-5.705 28.562-16.018 38.839l-156.562 157.147 10.277 136.558c11.447-6.839 22.272-14.299 32-23.991l192-192c30.866-31.415 48.018-72.558 48.018-116.553zM589.129 678.839l-136.558-10.277-156.014 156.562c-10.277 10.277-23.991 16.018-38.839 16.018s-28.562-5.705-38.839-15.433l-84.005-83.419c-10.277-10.277-16.018-23.991-16.018-38.29 0-14.848 5.705-28.562 16.018-38.839l156.562-156.562-10.277-137.143c-11.447 6.839-22.272 14.299-32 23.991l-192 192c-30.866 31.415-48.018 72.558-48.018 116.553s17.152 85.138 48.567 116.005l84.005 83.419c30.866 30.866 72.009 47.433 116.005 47.433s85.723-17.152 116.553-48.567l190.866-191.415c9.728-9.728 17.152-20.553 23.991-32zM950.857 630.857c0-10.277-8.009-18.286-18.286-18.286h-182.857c-10.277 0-18.286 8.009-18.286 18.286s8.009 18.286 18.286 18.286h182.857c10.277 0 18.286-8.009 18.286-18.286zM640 941.714v-182.857c0-10.277-8.009-18.286-18.286-18.286s-18.286 8.009-18.286 18.286v182.857c0 10.277 8.009 18.286 18.286 18.286s18.286-8.009 18.286-18.286zM872.558 855.442l-146.286-146.286c-3.986-3.438-8.558-5.157-13.129-5.157s-9.143 1.719-13.129 5.157c-6.839 7.424-6.839 18.871 0 26.295l146.286 146.286c7.424 6.839 18.871 6.839 26.295 0 6.839-7.424 6.839-18.871 0-26.295z" />
<glyph unicode="&#xe90f;" glyph-name="check" d="M384 269.995l452.011 452.011 59.989-59.989-512-512-237.995 237.995 59.989 59.989z" />
<glyph unicode="&#xe910;" glyph-name="clear" d="M809.984 685.995l-237.995-237.995 237.995-237.995-59.989-59.989-237.995 237.995-237.995-237.995-59.989 59.989 237.995 237.995-237.995 237.995 59.989 59.989 237.995-237.995 237.995 237.995z" />
<glyph unicode="&#xe911;" glyph-name="corner-up-left" d="M896 106.667v298.667c0 58.88-23.936 112.299-62.464 150.869s-91.989 62.464-150.869 62.464h-409.003l140.501 140.501c16.683 16.683 16.683 43.691 0 60.331s-43.691 16.683-60.331 0l-213.333-213.333c-4.096-4.096-7.168-8.789-9.259-13.824s-3.243-10.539-3.243-16.341 1.152-11.307 3.243-16.341c2.091-5.035 5.163-9.728 9.259-13.824l213.333-213.333c16.683-16.683 43.691-16.683 60.331 0s16.683 43.691 0 60.331l-140.501 140.501h409.003c35.371 0 67.285-14.293 90.496-37.504s37.504-55.125 37.504-90.496v-298.667c0-23.552 19.115-42.667 42.667-42.667s42.667 19.115 42.667 42.667z" />
<glyph unicode="&#xe912;" glyph-name="corner-up-right" d="M213.333 106.667v298.667c0 35.371 14.293 67.285 37.504 90.496s55.125 37.504 90.496 37.504h409.003l-140.501-140.501c-16.683-16.683-16.683-43.691 0-60.331s43.691-16.683 60.331 0l213.333 213.333c3.925 3.925 7.083 8.619 9.259 13.824 4.309 10.453 4.309 22.229 0 32.683-2.091 5.035-5.163 9.728-9.259 13.824l-213.333 213.333c-16.683 16.683-43.691 16.683-60.331 0s-16.683-43.691 0-60.331l140.501-140.501h-409.003c-58.88 0-112.299-23.936-150.869-62.464s-62.464-91.989-62.464-150.869v-298.667c0-23.552 19.115-42.667 42.667-42.667s42.667 19.115 42.667 42.667z" />
<glyph unicode="&#xe913;" glyph-name="crop_5_4" d="M809.984 233.984v427.989h-596.011v-427.989h596.011zM809.984 745.984q34.005 0 59.989-25.003t25.984-59.008v-427.989q0-34.005-25.984-59.008t-59.989-25.003h-596.011q-34.005 0-59.989 25.003t-25.984 59.008v427.989q0 34.005 25.984 59.008t59.989 25.003h596.011z" />
<glyph unicode="&#xe914;" glyph-name="crop_7_5" d="M809.984 320v256h-596.011v-256h596.011zM809.984 662.016q34.005 0 59.989-25.984t25.984-59.989v-256q0-34.005-25.984-59.989t-59.989-25.984h-596.011q-34.005 0-59.989 25.984t-25.984 59.989v256q0 34.005 25.984 59.989t59.989 25.984h596.011z" />
<glyph unicode="&#xe915;" glyph-name="crop_portrait" d="M726.016 150.016v596.011h-427.989v-596.011h427.989zM726.016 832q34.005 0 59.008-25.984t25.003-59.989v-596.011q0-34.005-25.003-59.989t-59.008-25.984h-427.989q-34.005 0-59.008 25.984t-25.003 59.989v596.011q0 34.005 25.003 59.989t59.008 25.984h427.989z" />
<glyph unicode="&#xe916;" glyph-name="drag_handle" d="M169.984 320v86.016h683.989v-86.016h-683.989zM854.016 576v-86.016h-683.989v86.016h683.989z" />
<glyph unicode="&#xe917;" glyph-name="expand_more" d="M708.011 594.005l59.989-59.989-256-256-256 256 59.989 59.989 196.011-196.011z" />
<glyph unicode="&#xe918;" glyph-name="fingerprint" d="M635.989 22.016h-6.016q-91.989 24.021-157.995 89.984-38.016 38.016-64.981 102.997t-27.008 118.997q0 52.011 38.016 89.003t91.989 36.992 93.013-36.992 38.997-89.003q0-34.005 25.003-57.984t63.019-24.021 64 24.021 25.984 57.984q0 120.021-91.008 205.995t-219.008 86.016q-91.989 0-168.021-47.019t-114.005-125.013q-24.021-50.005-24.021-120.021 0-80 27.989-153.984 6.016-20.011-13.995-25.984t-25.984 11.989q-32 82.005-32 168.021 0 77.995 29.995 137.984 41.984 89.984 128.981 144t191.019 54.016q146.005 0 249.003-98.987t102.997-237.013q0-52.011-38.997-88.021t-93.013-36.011-91.989 36.011-38.016 88.021q0 34.005-25.984 59.008t-64 25.003-63.019-25.003-25.003-59.008q0-112 80-192 56.021-56.021 139.989-77.995 18.005-2.005 13.995-25.984-4.011-16-20.011-16zM530.005 333.995q0-73.984 54.997-128t137.003-54.016q4.011 0 18.005 2.005t22.997 2.005 18.005-2.987 11.008-13.013q4.011-22.016-18.005-25.984-24.021-4.011-52.011-4.011-80 0-132.011 38.016-102.016 70.016-102.016 185.984 0 22.016 22.016 22.016 20.011 0 20.011-22.016zM416 29.995q-8.021 0-13.995 6.016-54.016 54.016-86.016 114.005-45.995 80-45.995 184.021 0 93.995 70.997 162.005t171.008 68.011 171.008-68.011 70.997-162.005q0-20.011-22.016-20.011t-22.016 20.011q0 77.995-57.984 132.992t-139.989 54.997-139.989-54.997-57.984-132.992q0-96 38.016-164.011 25.984-45.995 80-104.021 16-13.995 0-29.995-6.016-6.016-16-6.016zM150.016 546.005q-22.016 0-22.016 20.011 0 4.011 4.011 11.989 64 91.989 160 139.989 100.011 52.011 219.989 52.011t219.989-52.011q98.005-48 160-137.984 4.011-8.021 4.011-11.989 0-13.995-16-20.011t-24.021 8.021q-59.989 82.005-144 123.989-91.989 45.995-200.021 47.019t-200.021-47.019q-89.984-45.995-146.005-125.995-6.016-8.021-16-8.021zM760.021 770.005q-8.021 0-9.984 2.005-118.016 59.989-237.995 59.989-130.005 0-237.995-59.989-9.984-6.016-20.011 0t-9.984 18.005q0 13.995 9.984 20.011 116.011 64 258.005 64 130.005 0 258.005-64 18.005-9.984 8.021-27.989-8.021-11.989-18.005-11.989z" />
<glyph unicode="&#xe919;" glyph-name="grid" d="M256 480h224v224h-224v-224zM544 704v-224h224v224h-224zM544 192h224v224h-224v-224zM256 192h224v224h-224v-224z" />
<glyph unicode="&#xe91a;" glyph-name="hand" d="M668.896 191.552l94.688 127.488 111.2 106.24c0 0-37.056 44.192-82.88 44.192-20.576 0-39.424-5.888-56.64-17.664-17.12-11.744-32.736-29.376-46.816-52.96-19.68-6.88-35.008-13.44-46.016-19.68-2.432 24.512-5.376 42.656-8.8 54.4l63.872 247.936c15.136 59.776 18.752 89.984-17.248 105.984s-72.8-28.128-91.744-84.384l-60.576-191.456 1.824 246.208c0 60.448-19.072 90.656-57.216 90.656-38.528 0-57.76-26.784-57.76-80.32v-246.144l-61.952 215.616c-15.36 38.144-42.4 75.712-78.4 63.712s-34.304-71.232-24.32-109.152l55.2-210.208-89.024 147.040c-27.232 47.2-74.208 56.32-84.832 45.312-16.928-17.568-28.256-54.944 2.464-108.608l98.208-170.976 87.68-303.744v-59.040h256v76.128c29.728 20.384 55.424 48.192 93.088 83.424v0z" />
<glyph unicode="&#xe91b;" glyph-name="key" d="M905.779 718.080c-25.754 152.422-164.864 254.31-310.733 227.379s-269.107-144.179-243.354-296.704c5.478-32.819 20.89-84.173 39.066-121.088l-264.96-395.418c-9.779-14.592-15.309-40.909-12.39-58.419l17.050-100.915c2.97-17.51 19.046-29.286 35.84-26.317l77.619 14.387c16.794 3.021 38.093 17.818 47.309 32.717l104.806 169.523 0.922 1.126 70.963 13.107 122.368 198.605c40.192-7.117 97.894-4.71 131.994 1.587 145.818 26.931 209.254 187.904 183.501 340.429zM776.499 639.898c-40.141-59.904-81.101-17.715-138.394 24.32-57.293 41.882-109.312 67.686-69.222 127.59s119.091 74.496 176.486 32.512c57.344-41.933 71.219-124.518 31.13-184.422z" />
<glyph unicode="&#xe91c;" glyph-name="close_fullscreen" d="M938 792.667l-226-226 142-140h-342v342l140-142 226 226zM146 0.667l226 226 140-142v342h-342l142-140-226-226z" />
<glyph unicode="&#xe91d;" glyph-name="logo" horiz-adv-x="736" d="M115.008 395.392h387.168c8.768 0 13.12-10.592 6.944-16.768l-79.776-79.776c-5.536-5.536-13.024-8.64-20.832-8.64h-398.656c-5.44 0-9.824 4.384-9.824 9.824v650.144c0 8.736 10.592 13.12 16.768 6.944l132.384-132.384c5.536-5.536 13.024-8.64 20.832-8.64h448.768c7.808 0 15.328-3.104 20.832-8.64l79.776-79.776c6.176-6.176 1.792-16.768-6.944-16.768h-597.44c-5.44 0-9.824-4.416-9.824-9.824v-295.872c0-5.44 4.416-9.824 9.824-9.824zM736.16 595.904v-650.048c0-8.736-10.592-13.12-16.768-6.944l-132.32 132.32c-5.536 5.536-13.024 8.64-20.832 8.64h-448.768c-7.808 0-15.296 3.104-20.832 8.608l-79.84 79.776c-6.176 6.176-1.792 16.768 6.944 16.768h597.44c5.408 0 9.824 4.384 9.824 9.824v295.872c0 5.408-4.384 9.824-9.824 9.824h-293.376c-7.808 0-15.296 3.104-20.832 8.64l-79.84 79.776c-6.176 6.176-1.792 16.768 6.944 16.768h492.256c5.408 0 9.824-4.384 9.824-9.824z" />
<glyph unicode="&#xe91e;" glyph-name="logout" d="M169.984 745.984v-596.011h342.016v-86.016h-342.016q-34.005 0-59.008 25.984t-25.003 59.989v596.011q0 34.005 25.003 59.989t59.008 25.984h342.016v-86.016h-342.016zM726.016 662.016l212.011-214.016-212.011-214.016-59.989 61.995 109.995 109.995h-434.005v84.011h434.005l-109.995 112z" />
<glyph unicode="&#xe91f;" glyph-name="menu" d="M128 704h768v-86.016h-768v86.016zM128 406.016v84.011h768v-84.011h-768zM128 192v86.016h768v-86.016h-768z" />
<glyph unicode="&#xe920;" glyph-name="navigate_next" d="M425.984 704l256-256-256-256-59.989 59.989 196.011 196.011-196.011 196.011z" />
<glyph unicode="&#xe921;" glyph-name="person" d="M512 361.984q107.989 0 224.981-47.019t116.992-123.008v-86.016h-683.989v86.016q0 75.989 116.992 123.008t224.981 47.019zM512 448q-70.016 0-120.021 50.005t-50.005 120.021 50.005 121.003 120.021 50.987 120.021-50.987 50.005-121.003-50.005-120.021-120.021-50.005z" />
<glyph unicode="&#xe922;" glyph-name="power_settings_new" d="M760.021 740.011q136.021-116.011 136.021-292.011 0-160-112-272t-272-112-272 112-112 272q0 72.021 40.021 157.995t96 134.016l59.989-59.989q-45.995-38.016-77.995-105.984t-32-125.995q0-123.989 86.997-210.987t210.987-86.997 210.987 86.997 86.997 210.987q0 57.984-32 125.995t-77.995 104.021zM553.984 832v-425.984h-84.011v425.984h84.011z" />
<glyph unicode="&#xe923;" glyph-name="spinner, loading, loading-wheel, busy, wait" d="M512 960c-278.748 0-505.458-222.762-511.848-499.974 5.92 241.864 189.832 435.974 415.848 435.974 229.75 0 416-200.576 416-448 0-53.020 42.98-96 96-96s96 42.98 96 96c0 282.77-229.23 512-512 512zM512-64c278.748 0 505.458 222.762 511.848 499.974-5.92-241.864-189.832-435.974-415.848-435.974-229.75 0-416 200.576-416 448 0 53.020-42.98 96-96 96s-96-42.98-96-96c0-282.77 229.23-512 512-512z" />
<glyph unicode="&#xe924;" glyph-name="refresh" d="M754.005 690.005l100.011 100.011v-299.989h-299.989l137.984 137.984q-75.989 75.989-180.011 75.989-105.984 0-180.992-75.008t-75.008-180.992 75.008-180.992 180.992-75.008q73.984 0 144.981 50.005t96.981 120.021h88.021q-27.989-112-120.021-184.021t-210.005-72.021q-139.989 0-240 100.011t-100.011 242.005 100.011 242.005 240 100.011q59.989 0 130.987-29.013t111.019-70.997z" />
<glyph unicode="&#xe925;" glyph-name="remove_red_eye" d="M512 576q52.011 0 89.984-38.016t38.016-89.984-38.016-89.984-89.984-38.016-89.984 38.016-38.016 89.984 38.016 89.984 89.984 38.016zM512 233.984q88.021 0 150.997 63.019t63.019 150.997-63.019 150.997-150.997 63.019-150.997-63.019-63.019-150.997 63.019-150.997 150.997-63.019zM512 768q157.995 0 285.995-88.021t184.021-232.021q-56.021-144-184.021-232.021t-285.995-88.021-285.995 88.021-184.021 232.021q56.021 144 184.021 232.021t285.995 88.021z" />
<glyph unicode="&#xe926;" glyph-name="save_alt" d="M553.984 420.011l112 109.995 59.989-59.989-214.016-214.016-214.016 214.016 59.989 59.989 112-109.995v411.989h84.011v-411.989zM809.984 448h86.016v-297.984q0-34.005-25.984-59.989t-59.989-25.984h-596.011q-34.005 0-59.989 25.984t-25.984 59.989v297.984h86.016v-297.984h596.011v297.984z" />
<glyph unicode="&#xe927;" glyph-name="settings" d="M512 297.984q61.995 0 105.984 43.989t43.989 105.984-43.989 105.984-105.984 43.989-105.984-43.989-43.989-105.984 43.989-105.984 105.984-43.989zM829.995 406.016l89.984-70.016q13.995-9.984 4.011-27.989l-86.016-148.011q-8.021-13.995-25.984-8.021l-105.984 41.984q-41.984-29.995-72.021-41.984l-16-112q-4.011-18.005-20.011-18.005h-171.989q-16 0-20.011 18.005l-16 112q-38.016 16-72.021 41.984l-105.984-41.984q-18.005-6.016-25.984 8.021l-86.016 148.011q-9.984 18.005 4.011 27.989l89.984 70.016q-2.005 13.995-2.005 41.984t2.005 41.984l-89.984 70.016q-13.995 9.984-4.011 27.989l86.016 148.011q8.021 13.995 25.984 8.021l105.984-41.984q41.984 29.995 72.021 41.984l16 112q4.011 18.005 20.011 18.005h171.989q16 0 20.011-18.005l16-112q38.016-16 72.021-41.984l105.984 41.984q18.005 6.016 25.984-8.021l86.016-148.011q9.984-18.005-4.011-27.989l-89.984-70.016q2.005-13.995 2.005-41.984t-2.005-41.984z" />
<glyph unicode="&#xe928;" glyph-name="vertical_align_top" d="M170 810.667h684v-86h-684v86zM342 468.667l170 172 170-172h-128v-426h-84v426h-128z" />
<glyph unicode="&#xe929;" glyph-name="toggle-on" horiz-adv-x="1170" d="M0 448c0 201.728 163.986 365.714 365.714 365.714h438.857c201.728 0 365.714-163.986 365.714-365.714s-163.986-365.714-365.714-365.714h-438.857c-201.728 0-365.714 163.986-365.714 365.714zM804.571 155.429c161.134 0 292.571 131.438 292.571 292.571s-131.438 292.571-292.571 292.571-292.571-131.438-292.571-292.571 131.438-292.571 292.571-292.571z" />
<glyph unicode="&#xe92a;" glyph-name="trending_up" d="M681.984 704h256v-256l-98.005 98.005-267.989-267.989-169.984 169.984-256-256-59.989 59.989 315.989 315.989 169.984-169.984 208 208z" />
<glyph unicode="&#xe92b;" glyph-name="chevron-right" d="M366.336 700.331c-33.323-33.323-33.323-87.339 0-120.661l152.96-153.003-152.96-153.003c-33.323-33.323-33.323-87.339 0-120.661 16.64-16.683 38.485-25.003 60.331-25.003s43.691 8.32 60.331 25.003l273.707 273.664-273.707 273.664c-33.28 33.323-87.381 33.323-120.661 0z" />
<glyph unicode="&#xe92c;" glyph-name="view_stream" d="M169.984 745.984h726.016v-256h-726.016v256zM169.984 192v256h726.016v-256h-726.016z" />
<glyph unicode="&#xe92d;" glyph-name="visibility_off" d="M505.984 576h6.016q52.011 0 89.984-38.016t38.016-89.984v-8.021zM322.005 541.995q-24.021-48-24.021-93.995 0-88.021 63.019-150.997t150.997-63.019q45.995 0 93.995 24.021l-66.005 66.005q-16-4.011-27.989-4.011-52.011 0-89.984 38.016t-38.016 89.984q0 11.989 4.011 27.989zM86.016 777.984l54.016 54.016 756.011-756.011-54.016-54.016q-9.984 9.984-63.019 61.995t-80.981 80q-86.016-36.011-185.984-36.011-157.995 0-285.995 88.021t-184.021 232.021q22.016 52.011 68.992 114.987t91.008 96.981q-24.021 24.021-66.987 68.011t-48.981 50.005zM512 662.016q-40.021 0-77.995-16l-91.989 91.989q77.995 29.995 169.984 29.995 157.995 0 285.013-88.021t182.997-232.021q-48-118.016-146.005-201.984l-123.989 123.989q16 38.016 16 77.995 0 88.021-63.019 150.997t-150.997 63.019z" />
<glyph unicode="&#xe92e;" glyph-name="account_balance_wallet1" d="M681.984 384q25.984 0 45.013 18.005t18.987 45.995-18.987 45.995-45.013 18.005-45.013-18.005-18.987-45.995 18.987-45.995 45.013-18.005zM512 278.016v340.011h425.984v-340.011h-425.984zM896 192v-41.984q0-34.005-25.984-59.989t-59.989-25.984h-596.011q-36.011 0-61.013 25.003t-25.003 61.013v596.011q0 36.011 25.003 61.013t61.013 25.003h596.011q34.005 0 59.989-25.984t25.984-59.989v-41.984h-384q-36.011 0-61.013-25.003t-25.003-61.013v-340.011q0-36.011 25.003-61.013t61.013-25.003h384z" />
<glyph unicode="&#xe92f;" glyph-name="google" horiz-adv-x="860" d="M438.857 501.714h414.286c4-22.286 6.857-44 6.857-73.143 0-250.286-168-428.571-421.143-428.571-242.857 0-438.857 196-438.857 438.857s196 438.857 438.857 438.857c118.286 0 217.714-43.429 294.286-114.857l-119.429-114.857c-32.571 31.429-89.714 68-174.857 68-149.714 0-272-124-272-277.143s122.286-277.143 272-277.143c173.714 0 238.857 124.571 249.143 189.143h-249.143v150.857z" />
<glyph unicode="&#xe930;" glyph-name="chevron-right1" horiz-adv-x="695" d="M632.571 449.714l-424-424c-14.286-14.286-37.143-14.286-51.429 0l-94.857 94.857c-14.286 14.286-14.286 37.143 0 51.429l303.429 303.429-303.429 303.429c-14.286 14.286-14.286 37.143 0 51.429l94.857 94.857c14.286 14.286 37.143 14.286 51.429 0l424-424c14.286-14.286 14.286-37.143 0-51.429z" />
<glyph unicode="&#xe931;" glyph-name="chevron-left" horiz-adv-x="768" d="M669.143 778.857l-303.429-303.429 303.429-303.429c14.286-14.286 14.286-37.143 0-51.429l-94.857-94.857c-14.286-14.286-37.143-14.286-51.429 0l-424 424c-14.286 14.286-14.286 37.143 0 51.429l424 424c14.286 14.286 37.143 14.286 51.429 0l94.857-94.857c14.286-14.286 14.286-37.143 0-51.429z" />
<glyph unicode="&#xe932;" glyph-name="chevron-left1" d="M614.997 700.331c-33.28 33.323-87.381 33.323-120.661 0l-273.707-273.664 273.707-273.664c16.64-16.683 38.485-25.003 60.331-25.003s43.691 8.32 60.331 25.003c33.323 33.323 33.323 87.339 0 120.661l-152.96 153.003 152.96 153.003c33.323 33.323 33.323 87.339 0 120.661z" />
<glyph unicode="&#xe933;" glyph-name="arrow-up1" d="M554.667 721.664l-200.832-200.832c-16.683-16.683-16.683-43.648 0-60.331s43.648-16.683 60.331 0l97.835 97.835v-323.669c0-23.552 19.072-42.667 42.667-42.667s42.667 19.115 42.667 42.667v323.669l97.835-97.835c8.32-8.32 19.243-12.501 30.165-12.501s21.845 4.181 30.165 12.501c16.683 16.683 16.683 43.648 0 60.331l-200.832 200.832z" />
<glyph unicode="&#xe934;" glyph-name="battery-0" horiz-adv-x="1317" d="M1243.429 621.714c40.571 0 73.143-32.571 73.143-73.143v-219.429c0-40.571-32.571-73.143-73.143-73.143v-91.429c0-50.286-41.143-91.429-91.429-91.429h-1060.571c-50.286 0-91.429 41.143-91.429 91.429v548.571c0 50.286 41.143 91.429 91.429 91.429h1060.571c50.286 0 91.429-41.143 91.429-91.429v-91.429zM1243.429 329.143v219.429h-73.143v164.571c0 10.286-8 18.286-18.286 18.286h-1060.571c-10.286 0-18.286-8-18.286-18.286v-548.571c0-10.286 8-18.286 18.286-18.286h1060.571c10.286 0 18.286 8 18.286 18.286v164.571h73.143z" />
<glyph unicode="&#xe935;" glyph-name="chain1" horiz-adv-x="951" d="M832 265.143c0 14.848-5.705 28.562-16.018 38.839l-118.857 118.857c-10.277 10.277-24.576 16.018-38.839 16.018-16.567 0-29.696-6.29-41.143-18.286 18.871-18.871 41.143-34.853 41.143-64 0-30.281-24.576-54.857-54.857-54.857-29.147 0-45.129 22.272-64 41.143-11.995-11.447-18.871-24.576-18.871-41.728 0-14.299 5.705-28.562 16.018-38.839l117.723-118.272c10.277-10.277 24.576-15.433 38.839-15.433s28.562 5.157 38.839 14.848l84.005 83.419c10.277 10.277 16.018 23.991 16.018 38.29zM430.299 668.014c0 14.299-5.705 28.562-16.018 38.839l-117.723 118.272c-10.277 10.277-24.576 16.018-38.839 16.018s-28.562-5.705-38.839-15.433l-84.005-83.419c-10.277-10.277-16.018-23.991-16.018-38.29 0-14.848 5.705-28.562 16.018-38.839l118.857-118.857c10.277-10.277 24.576-15.433 38.839-15.433 16.567 0 29.696 5.705 41.143 17.701-18.871 18.871-41.143 34.853-41.143 64 0 30.281 24.576 54.857 54.857 54.857 29.147 0 45.129-22.272 64-41.143 11.995 11.447 18.871 24.576 18.871 41.728zM941.714 265.143c0-43.447-17.701-85.723-48.567-116.005l-84.005-83.419c-30.866-30.866-72.558-47.433-116.005-47.433-43.995 0-85.723 17.152-116.553 48.567l-117.723 118.272c-30.866 30.866-47.433 72.558-47.433 116.005 0 45.129 18.286 87.991 50.286 119.442l-50.286 50.286c-31.415-32-73.728-50.286-118.857-50.286-43.447 0-85.723 17.152-116.553 48.018l-118.857 118.857c-31.415 31.415-48.018 72.558-48.018 116.553 0 43.447 17.701 85.723 48.567 116.005l84.005 83.419c30.866 30.866 72.558 47.433 116.005 47.433 43.995 0 85.723-17.152 116.553-48.567l117.723-118.272c30.866-30.866 47.433-72.558 47.433-116.005 0-45.129-18.286-87.991-50.286-119.442l50.286-50.286c31.415 32 73.728 50.286 118.857 50.286 43.447 0 85.723-17.152 116.553-48.018l118.857-118.857c31.415-31.415 48.018-72.558 48.018-116.553z" />
<glyph unicode="&#xe936;" glyph-name="chain-broken1" horiz-adv-x="951" d="M250.843 233.728l-146.286-146.286c-3.986-3.438-8.558-5.157-13.129-5.157s-9.143 1.719-13.129 5.157c-6.839 7.424-6.839 18.871 0 26.295l146.286 146.286c7.424 6.839 18.871 6.839 26.295 0 6.839-7.424 6.839-18.871 0-26.295zM347.429 210.286v-182.857c0-10.277-8.009-18.286-18.286-18.286s-18.286 8.009-18.286 18.286v182.857c0 10.277 8.009 18.286 18.286 18.286s18.286-8.009 18.286-18.286zM219.429 338.286c0-10.277-8.009-18.286-18.286-18.286h-182.857c-10.277 0-18.286 8.009-18.286 18.286s8.009 18.286 18.286 18.286h182.857c10.277 0 18.286-8.009 18.286-18.286zM941.714 265.143c0-43.995-17.152-85.138-48.567-116.005l-84.005-83.419c-30.866-30.866-72.009-47.433-116.005-47.433s-85.723 17.152-116.553 48.567l-190.866 191.415c-9.728 9.728-17.152 20.553-23.991 32l136.558 10.277 156.014-156.562c20.553-20.553 57.161-21.138 77.714-0.585l84.005 83.419c10.277 10.277 16.018 23.991 16.018 38.29 0 14.848-5.705 28.562-16.018 38.839l-156.562 157.147 10.277 136.558c11.447-6.839 22.272-14.299 32-23.991l192-192c30.866-31.415 48.018-72.558 48.018-116.553zM589.129 678.839l-136.558-10.277-156.014 156.562c-10.277 10.277-23.991 16.018-38.839 16.018s-28.562-5.705-38.839-15.433l-84.005-83.419c-10.277-10.277-16.018-23.991-16.018-38.29 0-14.848 5.705-28.562 16.018-38.839l156.562-156.562-10.277-137.143c-11.447 6.839-22.272 14.299-32 23.991l-192 192c-30.866 31.415-48.018 72.558-48.018 116.553s17.152 85.138 48.567 116.005l84.005 83.419c30.866 30.866 72.009 47.433 116.005 47.433s85.723-17.152 116.553-48.567l190.866-191.415c9.728-9.728 17.152-20.553 23.991-32zM950.857 630.857c0-10.277-8.009-18.286-18.286-18.286h-182.857c-10.277 0-18.286 8.009-18.286 18.286s8.009 18.286 18.286 18.286h182.857c10.277 0 18.286-8.009 18.286-18.286zM640 941.714v-182.857c0-10.277-8.009-18.286-18.286-18.286s-18.286 8.009-18.286 18.286v182.857c0 10.277 8.009 18.286 18.286 18.286s18.286-8.009 18.286-18.286zM872.558 855.442l-146.286-146.286c-3.986-3.438-8.558-5.157-13.129-5.157s-9.143 1.719-13.129 5.157c-6.839 7.424-6.839 18.871 0 26.295l146.286 146.286c7.424 6.839 18.871 6.839 26.295 0 6.839-7.424 6.839-18.871 0-26.295z" />
<glyph unicode="&#xe937;" glyph-name="check1" d="M384 269.995l452.011 452.011 59.989-59.989-512-512-237.995 237.995 59.989 59.989z" />
<glyph unicode="&#xe938;" glyph-name="clear1" d="M809.984 685.995l-237.995-237.995 237.995-237.995-59.989-59.989-237.995 237.995-237.995-237.995-59.989 59.989 237.995 237.995-237.995 237.995 59.989 59.989 237.995-237.995 237.995 237.995z" />
<glyph unicode="&#xe939;" glyph-name="corner-up-left1" d="M896 106.667v298.667c0 58.88-23.936 112.299-62.464 150.869s-91.989 62.464-150.869 62.464h-409.003l140.501 140.501c16.683 16.683 16.683 43.691 0 60.331s-43.691 16.683-60.331 0l-213.333-213.333c-4.096-4.096-7.168-8.789-9.259-13.824s-3.243-10.539-3.243-16.341 1.152-11.307 3.243-16.341c2.091-5.035 5.163-9.728 9.259-13.824l213.333-213.333c16.683-16.683 43.691-16.683 60.331 0s16.683 43.691 0 60.331l-140.501 140.501h409.003c35.371 0 67.285-14.293 90.496-37.504s37.504-55.125 37.504-90.496v-298.667c0-23.552 19.115-42.667 42.667-42.667s42.667 19.115 42.667 42.667z" />
<glyph unicode="&#xe93a;" glyph-name="corner-up-right1" d="M213.333 106.667v298.667c0 35.371 14.293 67.285 37.504 90.496s55.125 37.504 90.496 37.504h409.003l-140.501-140.501c-16.683-16.683-16.683-43.691 0-60.331s43.691-16.683 60.331 0l213.333 213.333c3.925 3.925 7.083 8.619 9.259 13.824 4.309 10.453 4.309 22.229 0 32.683-2.091 5.035-5.163 9.728-9.259 13.824l-213.333 213.333c-16.683 16.683-43.691 16.683-60.331 0s-16.683-43.691 0-60.331l140.501-140.501h-409.003c-58.88 0-112.299-23.936-150.869-62.464s-62.464-91.989-62.464-150.869v-298.667c0-23.552 19.115-42.667 42.667-42.667s42.667 19.115 42.667 42.667z" />
<glyph unicode="&#xe93b;" glyph-name="crop_5_41" d="M809.984 233.984v427.989h-596.011v-427.989h596.011zM809.984 745.984q34.005 0 59.989-25.003t25.984-59.008v-427.989q0-34.005-25.984-59.008t-59.989-25.003h-596.011q-34.005 0-59.989 25.003t-25.984 59.008v427.989q0 34.005 25.984 59.008t59.989 25.003h596.011z" />
<glyph unicode="&#xe93c;" glyph-name="crop_7_51" d="M809.984 320v256h-596.011v-256h596.011zM809.984 662.016q34.005 0 59.989-25.984t25.984-59.989v-256q0-34.005-25.984-59.989t-59.989-25.984h-596.011q-34.005 0-59.989 25.984t-25.984 59.989v256q0 34.005 25.984 59.989t59.989 25.984h596.011z" />
<glyph unicode="&#xe93d;" glyph-name="crop_portrait1" d="M726.016 150.016v596.011h-427.989v-596.011h427.989zM726.016 832q34.005 0 59.008-25.984t25.003-59.989v-596.011q0-34.005-25.003-59.989t-59.008-25.984h-427.989q-34.005 0-59.008 25.984t-25.003 59.989v596.011q0 34.005 25.003 59.989t59.008 25.984h427.989z" />
<glyph unicode="&#xe93e;" glyph-name="drag_handle1" d="M169.984 320v86.016h683.989v-86.016h-683.989zM854.016 576v-86.016h-683.989v86.016h683.989z" />
<glyph unicode="&#xe93f;" glyph-name="expand_more1" d="M708.011 594.005l59.989-59.989-256-256-256 256 59.989 59.989 196.011-196.011z" />
<glyph unicode="&#xe940;" glyph-name="filter_alt1" d="M182.016 720q25.984-32 57.984-73.984t64.981-84.011 59.989-77.995 43.989-57.003l16.981-20.992v-256q0-18.005 13.013-31.019t31.019-13.013h84.011q18.005 0 31.019 13.013t13.013 31.019v256l16.981 20.992t43.989 57.003 59.989 77.995 64.981 84.011 57.984 73.984q11.989 13.995 9.984 29.995t-13.995 27.989-29.995 11.989h-592q-18.005 0-29.995-11.989t-13.995-27.989 9.984-29.995z" />
<glyph unicode="&#xe941;" glyph-name="fingerprint1" d="M635.989 22.016h-6.016q-91.989 24.021-157.995 89.984-38.016 38.016-64.981 102.997t-27.008 118.997q0 52.011 38.016 89.003t91.989 36.992 93.013-36.992 38.997-89.003q0-34.005 25.003-57.984t63.019-24.021 64 24.021 25.984 57.984q0 120.021-91.008 205.995t-219.008 86.016q-91.989 0-168.021-47.019t-114.005-125.013q-24.021-50.005-24.021-120.021 0-80 27.989-153.984 6.016-20.011-13.995-25.984t-25.984 11.989q-32 82.005-32 168.021 0 77.995 29.995 137.984 41.984 89.984 128.981 144t191.019 54.016q146.005 0 249.003-98.987t102.997-237.013q0-52.011-38.997-88.021t-93.013-36.011-91.989 36.011-38.016 88.021q0 34.005-25.984 59.008t-64 25.003-63.019-25.003-25.003-59.008q0-112 80-192 56.021-56.021 139.989-77.995 18.005-2.005 13.995-25.984-4.011-16-20.011-16zM530.005 333.995q0-73.984 54.997-128t137.003-54.016q4.011 0 18.005 2.005t22.997 2.005 18.005-2.987 11.008-13.013q4.011-22.016-18.005-25.984-24.021-4.011-52.011-4.011-80 0-132.011 38.016-102.016 70.016-102.016 185.984 0 22.016 22.016 22.016 20.011 0 20.011-22.016zM416 29.995q-8.021 0-13.995 6.016-54.016 54.016-86.016 114.005-45.995 80-45.995 184.021 0 93.995 70.997 162.005t171.008 68.011 171.008-68.011 70.997-162.005q0-20.011-22.016-20.011t-22.016 20.011q0 77.995-57.984 132.992t-139.989 54.997-139.989-54.997-57.984-132.992q0-96 38.016-164.011 25.984-45.995 80-104.021 16-13.995 0-29.995-6.016-6.016-16-6.016zM150.016 546.005q-22.016 0-22.016 20.011 0 4.011 4.011 11.989 64 91.989 160 139.989 100.011 52.011 219.989 52.011t219.989-52.011q98.005-48 160-137.984 4.011-8.021 4.011-11.989 0-13.995-16-20.011t-24.021 8.021q-59.989 82.005-144 123.989-91.989 45.995-200.021 47.019t-200.021-47.019q-89.984-45.995-146.005-125.995-6.016-8.021-16-8.021zM760.021 770.005q-8.021 0-9.984 2.005-118.016 59.989-237.995 59.989-130.005 0-237.995-59.989-9.984-6.016-20.011 0t-9.984 18.005q0 13.995 9.984 20.011 116.011 64 258.005 64 130.005 0 258.005-64 18.005-9.984 8.021-27.989-8.021-11.989-18.005-11.989z" />
<glyph unicode="&#xe942;" glyph-name="grid1" d="M256 480h224v224h-224v-224zM544 704v-224h224v224h-224zM544 192h224v224h-224v-224zM256 192h224v224h-224v-224z" />
<glyph unicode="&#xe943;" glyph-name="hand1" d="M668.896 191.552l94.688 127.488 111.2 106.24c0 0-37.056 44.192-82.88 44.192-20.576 0-39.424-5.888-56.64-17.664-17.12-11.744-32.736-29.376-46.816-52.96-19.68-6.88-35.008-13.44-46.016-19.68-2.432 24.512-5.376 42.656-8.8 54.4l63.872 247.936c15.136 59.776 18.752 89.984-17.248 105.984s-72.8-28.128-91.744-84.384l-60.576-191.456 1.824 246.208c0 60.448-19.072 90.656-57.216 90.656-38.528 0-57.76-26.784-57.76-80.32v-246.144l-61.952 215.616c-15.36 38.144-42.4 75.712-78.4 63.712s-34.304-71.232-24.32-109.152l55.2-210.208-89.024 147.040c-27.232 47.2-74.208 56.32-84.832 45.312-16.928-17.568-28.256-54.944 2.464-108.608l98.208-170.976 87.68-303.744v-59.040h256v76.128c29.728 20.384 55.424 48.192 93.088 83.424v0z" />
<glyph unicode="&#xe944;" glyph-name="key1" d="M905.779 718.080c-25.754 152.422-164.864 254.31-310.733 227.379s-269.107-144.179-243.354-296.704c5.478-32.819 20.89-84.173 39.066-121.088l-264.96-395.418c-9.779-14.592-15.309-40.909-12.39-58.419l17.050-100.915c2.97-17.51 19.046-29.286 35.84-26.317l77.619 14.387c16.794 3.021 38.093 17.818 47.309 32.717l104.806 169.523 0.922 1.126 70.963 13.107 122.368 198.605c40.192-7.117 97.894-4.71 131.994 1.587 145.818 26.931 209.254 187.904 183.501 340.429zM776.499 639.898c-40.141-59.904-81.101-17.715-138.394 24.32-57.293 41.882-109.312 67.686-69.222 127.59s119.091 74.496 176.486 32.512c57.344-41.933 71.219-124.518 31.13-184.422z" />
<glyph unicode="&#xe945;" glyph-name="keyboard_backspace1" d="M896 489.984v-84.011h-603.989l152.021-153.984-59.989-59.989-256 256 256 256 59.989-59.989-152.021-153.984h603.989z" />
<glyph unicode="&#xe946;" glyph-name="logo1" horiz-adv-x="736" d="M115.008 395.392h387.168c8.768 0 13.12-10.592 6.944-16.768l-79.776-79.776c-5.536-5.536-13.024-8.64-20.832-8.64h-398.656c-5.44 0-9.824 4.384-9.824 9.824v650.144c0 8.736 10.592 13.12 16.768 6.944l132.384-132.384c5.536-5.536 13.024-8.64 20.832-8.64h448.768c7.808 0 15.328-3.104 20.832-8.64l79.776-79.776c6.176-6.176 1.792-16.768-6.944-16.768h-597.44c-5.44 0-9.824-4.416-9.824-9.824v-295.872c0-5.44 4.416-9.824 9.824-9.824zM736.16 595.904v-650.048c0-8.736-10.592-13.12-16.768-6.944l-132.32 132.32c-5.536 5.536-13.024 8.64-20.832 8.64h-448.768c-7.808 0-15.296 3.104-20.832 8.608l-79.84 79.776c-6.176 6.176-1.792 16.768 6.944 16.768h597.44c5.408 0 9.824 4.384 9.824 9.824v295.872c0 5.408-4.384 9.824-9.824 9.824h-293.376c-7.808 0-15.296 3.104-20.832 8.64l-79.84 79.776c-6.176 6.176-1.792 16.768 6.944 16.768h492.256c5.408 0 9.824-4.384 9.824-9.824z" />
<glyph unicode="&#xe947;" glyph-name="logout1" d="M169.984 745.984v-596.011h342.016v-86.016h-342.016q-34.005 0-59.008 25.984t-25.003 59.989v596.011q0 34.005 25.003 59.989t59.008 25.984h342.016v-86.016h-342.016zM726.016 662.016l212.011-214.016-212.011-214.016-59.989 61.995 109.995 109.995h-434.005v84.011h434.005l-109.995 112z" />
<glyph unicode="&#xe948;" glyph-name="menu1" d="M128 704h768v-86.016h-768v86.016zM128 406.016v84.011h768v-84.011h-768zM128 192v86.016h768v-86.016h-768z" />
<glyph unicode="&#xe949;" glyph-name="navigate_next1" d="M425.984 704l256-256-256-256-59.989 59.989 196.011 196.011-196.011 196.011z" />
<glyph unicode="&#xe94a;" glyph-name="person1" d="M512 361.984q107.989 0 224.981-47.019t116.992-123.008v-86.016h-683.989v86.016q0 75.989 116.992 123.008t224.981 47.019zM512 448q-70.016 0-120.021 50.005t-50.005 120.021 50.005 121.003 120.021 50.987 120.021-50.987 50.005-121.003-50.005-120.021-120.021-50.005z" />
<glyph unicode="&#xe94b;" glyph-name="power_settings_new1" d="M760.021 740.011q136.021-116.011 136.021-292.011 0-160-112-272t-272-112-272 112-112 272q0 72.021 40.021 157.995t96 134.016l59.989-59.989q-45.995-38.016-77.995-105.984t-32-125.995q0-123.989 86.997-210.987t210.987-86.997 210.987 86.997 86.997 210.987q0 57.984-32 125.995t-77.995 104.021zM553.984 832v-425.984h-84.011v425.984h84.011z" />
<glyph unicode="&#xe94c;" glyph-name="stocks" d="M592.384 780.8c-61.952-59.904-70.656-66.56-87.040-66.56-13.824 0-24.576-5.632-46.592-23.040-24.576-20.48-35.84-36.352-82.944-119.808-49.152-87.040-56.32-97.28-70.144-99.84-36.352-7.168-54.272-13.824-55.808-20.992-1.024-3.584-23.040-31.232-49.152-60.928-34.816-39.936-50.688-54.272-59.392-54.272-22.528 0-29.184 22.016-13.824 46.080 3.072 4.096 16.384 8.704 32.256 10.24 24.576 2.56 27.136 3.584 27.136 15.36 0 11.264-2.56 12.8-21.504 14.336-40.448 3.072-53.76-4.096-69.12-36.352l-14.336-29.696 12.8-25.088 12.8-25.6h27.648c30.72 0 33.792 2.048 74.752 48.128l27.136 30.72-2.56-24.576c-2.56-20.992 0-30.72 16.384-66.048l19.456-41.472-15.36-19.968-15.872-19.456 22.528-23.552-10.752-44.032c-9.728-43.008-9.728-45.056-1.024-68.608 8.704-24.064 9.216-24.576 33.792-26.112 13.824-1.024 27.136 0.512 29.184 2.56 2.56 2.56 0 17.92-5.12 34.304-9.216 29.184-9.216 31.232 0.512 74.24 5.12 24.064 10.24 44.032 10.752 44.032 0.512 0.512 20.48 16.384 44.032 35.328 35.84 28.672 45.568 39.424 53.76 60.928l10.752 25.6 96.256 40.96 96.256 40.448 34.304 40.448c18.944 22.528 37.376 40.448 40.96 40.448 4.608 0 6.144-6.144 5.12-20.992-1.536-19.968-3.072-21.504-24.576-29.696-23.040-8.192-23.040-8.704-24.576-35.328-2.048-34.816 4.096-36.864 48.128-17.408l34.304 15.36 22.528 55.296 22.016 55.808-10.752 28.672c-10.24 28.16-11.264 29.184-33.28 32.768l-22.528 3.072 3.072 18.944c2.048 13.824-0.512 26.624-10.752 49.152-7.168 16.384-12.288 30.72-11.776 31.744 1.024 0.512 9.728-13.824 18.944-32.256 9.728-17.92 20.48-34.304 24.576-35.84 3.584-1.536 16.896-1.024 29.696 0.512l23.040 3.584v33.792c0 31.744 1.024 34.816 15.872 47.104 11.264 9.728 16.384 18.944 18.432 35.328 3.584 26.112 12.288 31.744 32.256 19.456 29.184-16.896 69.632-6.144 84.48 22.528 7.168 13.824 7.168 15.872 0.512 18.432-4.096 1.536-12.8-0.512-19.456-5.12-16.384-11.264-22.528-10.24-47.616 7.68-19.968 14.336-25.088 15.872-46.080 13.312-19.456-3.072-33.792 0.512-88.064 19.456-35.84 12.8-68.096 23.040-71.168 23.040-3.584 0-37.376-29.696-75.264-66.56zM743.424 595.456c-6.656-6.656 1.024-19.456 11.776-19.456 3.584 0 10.24-10.752 14.848-24.064 10.24-30.208 21.504-42.496 38.912-42.496 12.288 0 14.336-2.56 18.432-24.064 4.608-24.064 5.12-24.576 27.648-27.648 12.8-2.048 25.088-1.536 27.648 1.024s1.536 17.408-2.048 36.352c-7.68 35.328-13.824 43.008-67.584 83.456-31.744 23.552-56.832 29.696-69.632 16.896zM476.672 325.632c-29.696-12.288-33.792-15.872-42.496-36.352-5.632-12.8-19.456-32.768-30.72-44.544-20.992-21.504-20.992-22.016-11.776-32.256 9.216-9.728 9.216-11.776 1.024-50.176-8.192-36.864-8.192-41.984-0.512-64l8.192-24.064h25.088c22.528 0 25.088 1.024 24.576 11.776 0 6.144-3.072 20.48-6.656 31.744-5.12 16.896-4.608 26.624 2.048 56.832 10.24 43.008 8.704 40.448 50.176 90.624 30.72 36.864 32.768 40.96 28.672 55.808-2.56 8.704-7.168 16.896-9.728 17.408-3.072 0.512-19.968-5.12-37.888-12.8z" />
<glyph unicode="&#xe94d;" glyph-name="refresh1" d="M754.005 690.005l100.011 100.011v-299.989h-299.989l137.984 137.984q-75.989 75.989-180.011 75.989-105.984 0-180.992-75.008t-75.008-180.992 75.008-180.992 180.992-75.008q73.984 0 144.981 50.005t96.981 120.021h88.021q-27.989-112-120.021-184.021t-210.005-72.021q-139.989 0-240 100.011t-100.011 242.005 100.011 242.005 240 100.011q59.989 0 130.987-29.013t111.019-70.997z" />
<glyph unicode="&#xe94e;" glyph-name="remove_red_eye1" d="M512 576q52.011 0 89.984-38.016t38.016-89.984-38.016-89.984-89.984-38.016-89.984 38.016-38.016 89.984 38.016 89.984 89.984 38.016zM512 233.984q88.021 0 150.997 63.019t63.019 150.997-63.019 150.997-150.997 63.019-150.997-63.019-63.019-150.997 63.019-150.997 150.997-63.019zM512 768q157.995 0 285.995-88.021t184.021-232.021q-56.021-144-184.021-232.021t-285.995-88.021-285.995 88.021-184.021 232.021q56.021 144 184.021 232.021t285.995 88.021z" />
<glyph unicode="&#xe94f;" glyph-name="save_alt1" d="M553.984 420.011l112 109.995 59.989-59.989-214.016-214.016-214.016 214.016 59.989 59.989 112-109.995v411.989h84.011v-411.989zM809.984 448h86.016v-297.984q0-34.005-25.984-59.989t-59.989-25.984h-596.011q-34.005 0-59.989 25.984t-25.984 59.989v297.984h86.016v-297.984h596.011v297.984z" />
<glyph unicode="&#xe950;" glyph-name="settings1" d="M512 297.984q61.995 0 105.984 43.989t43.989 105.984-43.989 105.984-105.984 43.989-105.984-43.989-43.989-105.984 43.989-105.984 105.984-43.989zM829.995 406.016l89.984-70.016q13.995-9.984 4.011-27.989l-86.016-148.011q-8.021-13.995-25.984-8.021l-105.984 41.984q-41.984-29.995-72.021-41.984l-16-112q-4.011-18.005-20.011-18.005h-171.989q-16 0-20.011 18.005l-16 112q-38.016 16-72.021 41.984l-105.984-41.984q-18.005-6.016-25.984 8.021l-86.016 148.011q-9.984 18.005 4.011 27.989l89.984 70.016q-2.005 13.995-2.005 41.984t2.005 41.984l-89.984 70.016q-13.995 9.984-4.011 27.989l86.016 148.011q8.021 13.995 25.984 8.021l105.984-41.984q41.984 29.995 72.021 41.984l16 112q4.011 18.005 20.011 18.005h171.989q16 0 20.011-18.005l16-112q38.016-16 72.021-41.984l105.984 41.984q18.005 6.016 25.984-8.021l86.016-148.011q9.984-18.005-4.011-27.989l-89.984-70.016q2.005-13.995 2.005-41.984t-2.005-41.984z" />
<glyph unicode="&#xe951;" glyph-name="hourglass_empty" d="M512 448.667l170 170v150h-340v-150zM682 234.667l-170 170-170-170v-150h340v150zM256 852.667h512v-256l-170-170 170-170v-256h-512v256l170 170-170 170v256z" />
<glyph unicode="&#xe952;" glyph-name="toggle-on1" horiz-adv-x="1170" d="M0 448c0 201.728 163.986 365.714 365.714 365.714h438.857c201.728 0 365.714-163.986 365.714-365.714s-163.986-365.714-365.714-365.714h-438.857c-201.728 0-365.714 163.986-365.714 365.714zM804.571 155.429c161.134 0 292.571 131.438 292.571 292.571s-131.438 292.571-292.571 292.571-292.571-131.438-292.571-292.571 131.438-292.571 292.571-292.571z" />
<glyph unicode="&#xe953;" glyph-name="trending_up1" d="M681.984 704h256v-256l-98.005 98.005-267.989-267.989-169.984 169.984-256-256-59.989 59.989 315.989 315.989 169.984-169.984 208 208z" />
<glyph unicode="&#xe954;" glyph-name="lightbulb-o" horiz-adv-x="585" d="M420.571 621.714c0-9.714-8.571-18.286-18.286-18.286s-18.286 8.571-18.286 18.286c0 39.429-61.143 54.857-91.429 54.857-9.714 0-18.286 8.571-18.286 18.286s8.571 18.286 18.286 18.286c53.143 0 128-28 128-91.429zM512 621.714c0 114.286-116 182.857-219.429 182.857s-219.429-68.571-219.429-182.857c0-36.571 14.857-74.857 38.857-102.857 10.857-12.571 23.429-24.571 34.857-37.714 40.571-48.571 74.857-105.714 80.571-170.286h130.286c5.714 64.571 40 121.714 80.571 170.286 11.429 13.143 24 25.143 34.857 37.714 24 28 38.857 66.286 38.857 102.857zM585.143 621.714c0-58.857-19.429-109.714-58.857-153.143s-91.429-104.571-96-165.714c16.571-9.714 26.857-28 26.857-46.857 0-13.714-5.143-26.857-14.286-36.571 9.143-9.714 14.286-22.857 14.286-36.571 0-18.857-9.714-36-25.714-46.286 4.571-8 7.429-17.714 7.429-26.857 0-37.143-29.143-54.857-62.286-54.857-14.857-33.143-48-54.857-84-54.857s-69.143 21.714-84 54.857c-33.143 0-62.286 17.714-62.286 54.857 0 9.143 2.857 18.857 7.429 26.857-16 10.286-25.714 27.429-25.714 46.286 0 13.714 5.143 26.857 14.286 36.571-9.143 9.714-14.286 22.857-14.286 36.571 0 18.857 10.286 37.143 26.857 46.857-4.571 61.143-56.571 122.286-96 165.714s-58.857 94.286-58.857 153.143c0 155.429 148 256 292.571 256s292.571-100.571 292.571-256z" />
<glyph unicode="&#xe955;" glyph-name="bulb" d="M512 960c-194.432 0-352-157.568-352-352 0-128.992 118.016-265.696 160.992-385.76 64.096-179.040 56.992-286.24 191.008-286.24 136 0 126.88 106.688 191.008 285.504 43.104 120.32 160.992 258.496 160.992 386.496 0 194.432-157.632 352-352 352zM594.944 90.368l-158.656-19.808c-5.664 16.384-11.744 35.552-19.136 60.576-0.096 0.32-0.224 0.672-0.288 0.992l198.016 24.736c-2.816-9.44-5.824-19.36-8.448-28.256-4.192-14.368-7.936-26.848-11.488-38.24zM407.552 162.944c-5.824 19.264-12.384 39.552-19.68 61.056h248.512c-3.936-11.488-7.872-23.008-11.264-33.888l-217.568-27.168zM512 0c-32.416 0-47.328 3.744-63.904 40l135.616 16.992c-19.648-52.928-33.952-56.992-71.712-56.992zM661.504 288h-298.656c-15.936 34.56-35.072 69.12-53.952 102.944-41.76 74.72-84.896 152-84.896 217.056 0 158.816 129.184 288 288 288s288-129.184 288-288c0-64.576-43.2-142.272-84.992-217.44-18.688-33.696-37.696-68.192-53.504-102.56zM512 800c8.8 0 16-7.168 16-16s-7.168-16-16-16c-88.224 0-160-71.776-160-160 0-8.832-7.168-16-16-16s-16 7.168-16 16c0 105.888 86.112 192 192 192z" />
<glyph unicode="&#xe956;" glyph-name="visibility_off1" d="M505.984 576h6.016q52.011 0 89.984-38.016t38.016-89.984v-8.021zM322.005 541.995q-24.021-48-24.021-93.995 0-88.021 63.019-150.997t150.997-63.019q45.995 0 93.995 24.021l-66.005 66.005q-16-4.011-27.989-4.011-52.011 0-89.984 38.016t-38.016 89.984q0 11.989 4.011 27.989zM86.016 777.984l54.016 54.016 756.011-756.011-54.016-54.016q-9.984 9.984-63.019 61.995t-80.981 80q-86.016-36.011-185.984-36.011-157.995 0-285.995 88.021t-184.021 232.021q22.016 52.011 68.992 114.987t91.008 96.981q-24.021 24.021-66.987 68.011t-48.981 50.005zM512 662.016q-40.021 0-77.995-16l-91.989 91.989q77.995 29.995 169.984 29.995 157.995 0 285.013-88.021t182.997-232.021q-48-118.016-146.005-201.984l-123.989 123.989q16 38.016 16 77.995 0 88.021-63.019 150.997t-150.997 63.019z" />
<glyph unicode="&#xe957;" glyph-name="filters-less" d="M384.169 842.836c-138.678-140.421-128.812-231.194 10.455-96.21l74.708 72.41v-467.878l202.345-201.503c160.097-159.434 207.821-196.024 228.577-175.268 20.759 20.759-12.577 65.231-159.677 213.012l-185.91 186.778v444.859l74.708-72.41c139.267-134.984 149.133-44.211 10.455 96.21-139.912 141.673-115.75 141.673-255.662 0zM245.722 149.724c-116.741-117.642-142.561-154.752-121.989-175.324 28.234-28.234 331.553 249.080 317.745 290.504-16.269 48.806-56.538 25.114-195.756-115.18z" />
<glyph unicode="&#xe958;" glyph-name="filters-more" d="M0 789.332c0-156.444 3.556-170.665 42.668-170.665 36.646 0 42.665 14.221 42.665 100.797v100.8l159.734-158.666c126.052-125.21 165.243-153.157 185.866-132.531 20.626 20.623-7.322 59.814-132.531 185.866l-158.666 159.734h100.8c86.577 0 100.797 6.019 100.797 42.665 0 39.112-14.221 42.668-170.665 42.668h-170.668v-170.668zM682.668 917.332c0-36.657 14.221-42.665 100.969-42.665h100.969l-457.938-459.364v-239.652c0-225.428 2.532-239.652 42.665-239.652 40.026 0 42.668 14.223 42.668 229.734v229.732l426.668 425.068v-100.933c0-86.712 6.011-100.933 42.665-100.933 39.112 0 42.668 14.221 42.668 170.665v170.668h-170.668c-156.444 0-170.665-3.556-170.665-42.668z" />
<glyph unicode="&#xe959;" glyph-name="swipe" d="M858 794l80 80v-212h-212l88 88q-34 44-116 74t-186 30-186-30-116-74l88-88h-212v212l80-80q48 56 141 90t205 34 205-34 141-90zM842 266v-8l-32-224q-4-24-21-40t-41-16h-290q-24 0-44 20l-212 210 34 34q14 14 34 14h10l146-32v458q0 26 19 45t45 19 45-19 19-45v-256h34q6 0 22-4l194-96q38-18 38-60z" />
<glyph unicode="&#xe95a;" glyph-name="info" d="M636.518 972.8c68.608 0 102.912-46.694 102.912-100.198 0-66.816-59.597-128.614-137.165-128.614-64.973 0-102.861 38.4-101.069 101.888 0 53.402 45.107 126.925 135.322 126.925zM425.421-51.2c-54.17 0-93.85 33.382-55.962 180.429l62.157 260.71c10.803 41.677 12.595 58.419 0 58.419-16.23 0-86.477-28.774-128.102-57.19l-27.034 45.056c131.686 111.923 283.187 177.51 348.211 177.51 54.118 0 63.13-65.178 36.096-165.376l-71.219-274.022c-12.595-48.384-7.219-65.075 5.427-65.075 16.23 0 69.478 20.070 121.805 61.798l30.72-41.677c-128.102-130.406-268.032-180.582-322.099-180.582z" />
<glyph unicode="&#xe95b;" glyph-name="message" d="M921.6 665.6v-358.4c0-56.32-46.080-102.4-102.4-102.4h-204.8v-153.6l-204.8 153.6h-204.8c-56.371 0-102.4 46.080-102.4 102.4v358.4c0 56.32 46.029 102.4 102.4 102.4h614.4c56.32 0 102.4-46.080 102.4-102.4z" />
<glyph unicode="&#xe95c;" glyph-name="wallet" d="M576 256c-35.328 0-64 28.672-64 64v64c0 35.36 28.672 64 64 64h384v-192h-384zM624 397.344c-26.496 0-48-21.504-48-48 0-26.528 21.504-48 48-48 26.528 0 48 21.472 48 48 0 26.496-21.472 48-48 48zM480 384v-64c0-52.992 43.008-96 96-96h320v-128c0-52.992-42.976-96-96-96h-672c-52.992 0-96 43.008-96 96v608c0 53.024 43.008 96 96 96h308.224l-75.168-31.328h-249.024c-26.496 0-48-21.504-48-48 0-26.528 21.504-48 48-48h783.968v-192.672h-320c-52.992 0-96-42.976-96-96zM160.032 608h-64v-64h32v32h32v32zM160.032 512h-64v-64h33.312l-1.312 32 32-0.672v32.672zM160.032 416h-64v-64h32.672l-0.672 32h32v32zM160.032 320h-64v-64h32.672l-0.672 32 32-0.672v32.672zM160.032 224h-64v-64h32v32h32v32zM160.032 128h-64v-64h32.672l-0.672 31.328h32v32.672zM288.032 705.984l376 158.016 72-158.016h-448zM724.672 800h75.328c28.032 0 52.992-12.192 70.56-31.328h-130.592l-15.296 31.328z" />
<glyph unicode="&#xe95d;" glyph-name="ruler" d="M193.856 741.28l21.952-21.952-89.856-89.856 70.016-70.016 90.272 90.272 20.512-20.512-90.272-90.304 69.12-69.088 205.312 205.312-249.984 248.512-204.576-204.576 67.648-67.68 89.856 89.888zM739.168 426.912l-205.312-205.344 69.088-69.088 90.304 90.272 20.512-20.512-90.272-90.272 70.016-70.016 89.824 89.856 21.952-21.952-89.824-89.856 67.616-67.648 204.608 204.608-248.512 249.952zM954.304 689.568c24.992 25.024 25.184 65.44 0.384 90.272l-112.384 112.352c-24.8 24.8-65.248 24.672-90.24-0.384l-69.44-69.44 202.24-202.24 69.44 69.44zM108.736 129.856l83.936-83.936 169.088 60.064-192.96 192.96-60.064-169.088zM660.8 801.824l-476.32-476.352 203.808-203.808 476.352 476.352-203.84 203.808zM277.024 325.888l383.392 383.392 22.336-22.336-383.424-383.424-22.304 22.368zM321.696 281.184l383.36 383.392 22.336-22.336-383.392-383.36-22.304 22.304zM366.368 236.544l383.392 383.392 22.304-22.336-383.36-383.392-22.336 22.336zM62.528-0.32l98.112 35.744-62.368 62.368-35.744-98.112z" />
<glyph unicode="&#xe95e;" glyph-name="create" d="M884 638.667l-78-78-160 160 78 78q12 12 30 12t30-12l100-100q12-12 12-30t-12-30zM128 202.667l472 472 160-160-472-472h-160v160z" />
<glyph unicode="&#xe95f;" glyph-name="move" d="M469.333 750.336v-281.003h-281.003l55.168 55.168c16.683 16.683 16.683 43.691 0 60.331s-43.691 16.683-60.331 0l-128-128c-7.723-7.723-12.501-18.389-12.501-30.165 0-5.803 1.152-11.307 3.243-16.341s5.163-9.728 9.259-13.824l128-128c16.683-16.683 43.691-16.683 60.331 0s16.683 43.691 0 60.331l-55.168 55.168h281.003v-281.003l-55.168 55.168c-16.683 16.683-43.691 16.683-60.331 0s-16.683-43.691 0-60.331l128-128c4.096-4.096 8.789-7.168 13.824-9.259s10.539-3.243 16.341-3.243c5.547 0 11.136 1.067 16.341 3.243 5.035 2.091 9.728 5.163 13.824 9.259l128 128c16.683 16.683 16.683 43.691 0 60.331s-43.691 16.683-60.331 0l-55.168-55.168v281.003h281.003l-55.168-55.168c-16.683-16.683-16.683-43.691 0-60.331s43.691-16.683 60.331 0l128 128c4.096 4.096 7.168 8.789 9.259 13.824 6.4 15.445 3.328 33.92-9.259 46.507l-128 128c-16.683 16.683-43.691 16.683-60.331 0s-16.683-43.691 0-60.331l55.168-55.168h-281.003v281.003l55.168-55.168c16.683-16.683 43.691-16.683 60.331 0s16.683 43.691 0 60.331l-128 128c-3.925 3.925-8.619 7.083-13.824 9.259-10.453 4.309-22.229 4.309-32.683 0-5.035-2.091-9.728-5.163-13.824-9.259l-128-128c-16.683-16.683-16.683-43.691 0-60.331s43.691-16.683 60.331 0z" />
<glyph unicode="&#xe960;" glyph-name="checkmark" d="M927.936 687.008l-68.288 68.288c-12.608 12.576-32.96 12.576-45.536 0l-409.44-409.44-194.752 196.16c-12.576 12.576-32.928 12.576-45.536 0l-68.288-68.288c-12.576-12.608-12.576-32.96 0-45.536l285.568-287.488c12.576-12.576 32.96-12.576 45.536 0l500.736 500.768c12.576 12.544 12.576 32.96 0 45.536z" />
<glyph unicode="&#xe961;" glyph-name="fullscreen_exit" d="M682 596.667h128v-84h-212v212h84v-128zM598 128.667v212h212v-84h-128v-128h-84zM342 596.667v128h84v-212h-212v84h128zM214 256.667v84h212v-212h-84v128h-128z" />
<glyph unicode="&#xe962;" glyph-name="fullscreen" d="M598 724.667h212v-212h-84v128h-128v84zM726 212.667v128h84v-212h-212v84h128zM214 512.667v212h212v-84h-128v-128h-84zM298 340.667v-128h128v-84h-212v212h84z" />
<glyph unicode="&#xe963;" glyph-name="trending_up2" d="M682 704h256v-256l-98 98-268-268-170 170-256-256-60 60 316 316 170-170 208 208z" />
<glyph unicode="&#xe964;" glyph-name="switch_itself" d="M200.704 479.573h264.192c12.288 0 20.48 8.192 20.48 20.48v264.192c0 12.288-8.192 20.48-20.48 20.48h-264.192c-12.288 0-20.48-8.192-20.48-20.48v-264.192c0-10.24 8.192-20.48 20.48-20.48zM221.184 743.765h223.232v-223.232h-223.232v223.232zM550.912 479.573h264.192c12.288 0 20.48 8.192 20.48 20.48v264.192c0 12.288-8.192 20.48-20.48 20.48h-264.192c-12.288 0-20.48-8.192-20.48-20.48v-264.192c0-10.24 8.192-20.48 20.48-20.48zM571.392 743.765h223.232v-223.232h-223.232v223.232zM200.704 129.365h264.192c12.288 0 20.48 8.192 20.48 20.48v266.24c0 12.288-8.192 20.48-20.48 20.48h-264.192c-12.288 0-20.48-8.192-20.48-20.48v-264.192c0-12.288 8.192-22.528 20.48-22.528zM221.184 395.605h223.232v-223.232h-223.232v223.232zM530.432 149.845c0-12.288 8.192-20.48 20.48-20.48h264.192c12.288 0 20.48 8.192 20.48 20.48v266.24c0 12.288-8.192 20.48-20.48 20.48h-264.192c-12.288 0-20.48-8.192-20.48-20.48v-266.24zM571.392 395.605h223.232v-223.232h-223.232v223.232zM221.184 749.909h223.232v-227.328h-223.232v227.328z" />
<glyph unicode="&#xe965;" glyph-name="switch_other" d="M200.704 479.573h264.192c12.288 0 20.48 8.192 20.48 20.48v264.192c0 12.288-8.192 20.48-20.48 20.48h-264.192c-12.288 0-20.48-8.192-20.48-20.48v-264.192c0-10.24 8.192-20.48 20.48-20.48zM221.184 743.765h223.232v-223.232h-223.232v223.232zM550.912 479.573h264.192c12.288 0 20.48 8.192 20.48 20.48v264.192c0 12.288-8.192 20.48-20.48 20.48h-264.192c-12.288 0-20.48-8.192-20.48-20.48v-264.192c0-10.24 8.192-20.48 20.48-20.48zM571.392 743.765h223.232v-223.232h-223.232v223.232zM200.704 129.365h264.192c12.288 0 20.48 8.192 20.48 20.48v266.24c0 12.288-8.192 20.48-20.48 20.48h-264.192c-12.288 0-20.48-8.192-20.48-20.48v-264.192c0-12.288 8.192-22.528 20.48-22.528zM221.184 395.605h223.232v-223.232h-223.232v223.232zM530.432 149.845c0-12.288 8.192-20.48 20.48-20.48h264.192c12.288 0 20.48 8.192 20.48 20.48v266.24c0 12.288-8.192 20.48-20.48 20.48h-264.192c-12.288 0-20.48-8.192-20.48-20.48v-266.24zM571.392 395.605h223.232v-223.232h-223.232v223.232zM221.184 397.653h223.232v-227.328h-223.232v227.328zM571.392 745.813h223.232v-227.328h-223.232v227.328zM571.392 397.653h223.232v-227.328h-223.232v227.328z" />
<glyph unicode="&#xe966;" glyph-name="currencies" d="M472.741 884.59c-69.848-6.052-140.023-30.589-200.056-69.684-10.142-6.707-28.463-19.957-42.040-30.753-2.29-1.799-15.213-14.231-28.626-27.808-40.404-40.24-67.067-78.845-90.459-130.863-21.265-47.274-32.879-94.221-36.642-149.183l-1.963-28.299h-35.66c-19.629 0-35.66-0.491-35.66-0.981s3.435-5.562 7.852-11.287c4.253-5.725 13.25-17.994 19.957-27.154 6.707-9.324 17.012-23.228 22.901-31.080s16.849-22.901 24.537-33.37c7.688-10.633 19.957-27.318 27.318-37.296 7.525-10.142 13.741-18.975 14.068-19.793 0.981-3.108 4.58 1.145 26.009 30.589 11.941 16.358 22.574 30.916 23.719 32.225s12.759 17.176 26.009 35.169c13.25 17.994 28.463 38.768 34.024 46.293s10.305 14.395 10.469 15.213c0.327 0.818-13.904 1.472-35.66 1.472h-36.314l1.145 16.031c7.034 107.798 54.635 196.621 139.859 261.398 32.552 24.7 78.027 45.965 121.048 56.925 18.157 4.58 44.984 8.506 67.558 9.978l15.867 1.145v92.912l-11.778-0.164c-6.543-0.164-18.975-0.818-27.481-1.636zM492.371 633.007c0-18.812 0.818-18.157-19.629-18.157-23.719-0.164-48.419-5.071-64.777-13.086-25.682-12.596-36.478-39.422-34.515-86.696 0.491-12.105 1.963-25.682 3.272-30.262 3.272-11.45 11.45-26.99 17.012-32.061 14.558-13.577 38.441-20.447 77.373-22.41l20.447-1.145 0.491-47.274 0.327-47.274-18.321 0.981c-36.314 1.799-44.493 8.997-46.783 42.367l-0.818 12.759h-56.762v-13.741c0-37.95 12.923-66.249 35.496-77.536 16.194-8.179 41.712-13.413 65.431-13.413 9.16 0 17.666-0.491 19.139-0.981 2.127-0.818 2.617-4.089 2.617-19.629v-18.648h39.259v39.259h18.321c27.972 0 54.635 5.562 70.012 14.722 15.704 9.324 23.555 20.284 29.771 41.712 3.272 11.287 3.762 16.685 3.762 40.895 0 28.463-1.799 40.404-8.342 53.981-11.123 23.555-39.422 34.842-99.128 39.422l-14.395 0.981v86.696l15.213-0.654c13.25-0.491 16.358-1.309 24.046-5.725 11.287-6.216 17.994-17.666 17.994-30.098v-8.015h55.617v13.25c0 27.318-9.16 52.181-23.392 63.468-12.759 9.978-36.478 16.358-68.212 17.994l-20.447 0.981-1.636 32.716-38.441 0.981v-16.358zM492.043 522.101l-0.491-42.203-11.45 0.491c-14.231 0.654-27.808 4.253-34.679 9.488-2.781 2.127-7.197 8.015-9.488 12.923-4.089 8.179-4.417 10.305-3.762 22.737 0.654 11.941 1.309 14.722 5.398 20.774 8.506 11.941 21.756 17.666 42.203 17.83h12.596l-0.327-42.040zM561.564 424.935c13.741-2.127 24.537-6.707 27.972-11.941 6.38-9.815 8.179-33.37 3.762-48.583-3.108-10.633-11.287-19.302-23.228-24.537-6.38-2.781-11.614-3.599-23.719-3.762l-15.54-0.164v10.633c0 5.889 0.164 26.336 0.491 45.475l0.327 34.679h9.16c4.907 0 14.395-0.818 20.774-1.799zM893.301 597.183c-8.179-11.614-20.938-28.953-53.654-73.119-6.543-8.997-21.756-29.608-33.697-45.802l-21.756-29.444 36.642-0.491 36.642-0.327-1.145-16.031c-3.272-50.219-14.558-93.894-34.515-134.788-45.311-91.931-126.773-158.18-226.392-183.535-17.83-4.58-44.33-8.506-67.394-9.978l-16.031-1.145v-93.403l20.938 1.145c38.114 2.127 75.41 8.67 109.107 19.302 54.799 17.176 112.051 48.746 153.927 84.734 7.688 6.707 47.601 46.783 52.181 52.345 24.21 30.098 41.385 56.762 56.435 87.514 27.481 56.271 40.24 103.545 44.493 165.705l1.963 28.135h72.956l-7.688 10.305c-4.417 5.562-8.997 11.778-10.305 13.577-1.309 1.963-11.287 15.54-22.083 30.098s-21.102 28.626-22.901 31.243c-1.799 2.454-13.904 18.975-26.99 36.642-13.086 17.503-24.864 33.861-26.173 35.987-1.309 2.29-3.108 4.089-4.089 3.926-0.818 0-5.562-5.725-10.469-12.596z" />
<glyph unicode="&#xe967;" glyph-name="commodities" d="M786 937c-68.4-14-120.4-62-141.4-130.4-4.8-16-5.4-20.6-5.4-49.6 0-29.2 0.6-33.6 5.6-49.8 14.6-48.2 47.8-89.8 88.4-110.6 10-5.2 14.8-8.8 14.8-11.2 0-4.8-8.6-21.4-15-29.2-6.4-7.4-5.6-15.4 1.6-18 4.8-1.8 22.6 0 38.4 3.8 14.2 3.4 40.6 16.4 50 24.6 6.6 5.6 10.6 7.2 20 8.4 26.6 3.2 59.6 15.8 82.8 31.4 15.8 10.6 42.4 39.6 52.4 56.8 19.4 33.4 24.8 54 24.8 93.8 0 32.6-2.4 45.2-13.2 71.6-18.2 44-61.2 85-105.8 100.6-30.8 10.8-68.8 13.8-98 7.8zM830.6 843.6c1.8-1.4 3.4-5.8 3.8-9.6 0.6-6.4 1.2-7 9.4-8.4 12-2 22.8-9.6 27.8-19.6 4.4-9.2 3.8-15-2.2-18.2-5.4-3-12.4 0.4-16.2 7.8-4.4 8.4-12.2 11-32 10.2-14.4-0.6-17.6-1.4-22-5.6-6.6-6.2-8.2-14.4-4.4-22 1.8-3.2 4.4-6.6 5.6-7.6 1.4-0.8 12.6-2.2 24.6-2.8 27-1.4 36.2-5.4 45.2-19.4 5.4-8.4 6-10.8 5.4-22.6-1-20.4-12.8-34.2-31.8-37.4-8.2-1.4-8.8-2-9.4-8.4-0.8-8.6-3.6-12-9.2-12-6.8 0-9.6 3-11 11.2-1.2 7.2-1.8 7.8-9.8 9.2-11.2 1.8-21.2 8.2-26.2 16.4-5.2 8.4-5.2 13.6-0.2 18.2 5.2 4.6 13 2.6 16.8-4.6 4.2-8 11-10.4 29.4-10.4 18.6 0 26 3 29.8 11.8 2.8 7 1.6 13.8-3.8 20.4-3.6 4.4-5.6 4.8-26.6 5.8-17.6 0.8-24.4 2-30.6 5.2-23.4 12.2-28.2 46.4-8.6 64 6.8 6.4 16.6 10.8 23.6 10.8 5.6 0 6 0.6 6 6.8 0 11.2 8.6 16.6 16.6 10.8zM249.2 769.6c-1.8-2.6-3.2-8.8-3.2-14.6 0-15.6-5.2-36.6-12.8-52-12.4-25-28.4-39.6-52.4-48-15.2-5.4-18.8-8-18.8-14 0-6.2 3.4-8.6 17-12.2 26.8-6.8 51.2-26.2 62.8-49.8 6.4-12.8 12-34.6 12.2-46.2 0-6.6 3.2-11.6 8.6-13.6 5.2-1.6 13.4 7.2 13.4 14.2 0 9.8 5.8 29 13.4 44.6 9.8 20.4 29.8 40.2 51 50.4 17.8 8.6 21.6 13.4 16.6 20.8-1.8 2.6-5 4.8-7.6 4.8-6.2 0-27.8 10.6-37.6 18.4-19.2 15.4-34.8 44.8-41.4 78.4-2.2 10.8-5.2 20.4-6.8 21.4-4.8 3-11.4 1.8-14.4-2.6zM266 697.6c8.2-17 21.8-33.6 36-44.4 6.6-4.8 13-9.2 14.4-9.8 1.6-0.6 0-3-4.4-6.6-14-11-31.8-31.4-38.4-44-3.6-7-7-12.8-7.6-12.8s-3.6 5.2-7 11.4c-8 15.4-26 34.2-40.8 42.6-6.6 3.8-12 7.4-12 8s5.4 4.8 11.8 9.4c14 10 27 27 35.2 45.4 3.2 7.2 5.8 13.2 6.2 13.2 0.2 0 3.2-5.6 6.6-12.4zM480.2 756.2c-6.2-6.2-8.8-43-5.2-71.4l1.2-10.8h-8.6c-4.8 0-9.8-1-11.2-2.4-5.8-5.8 0-43 10.6-66.6 5-11.6 5-11.6 1-14.4-7.6-5.4-3.4-26.2 13-65 1-2.8 0.4-3.6-2.6-3.6-7.6 0-9-4.8-7.8-25.6 0.8-10.6 3.2-26.8 5.4-36s4-17 4-17.6c0-0.4-3.6-0.2-8 0.4-5 0.8-9 0.4-10.8-1-4.4-3.6-8-27-8-52.8-0.2-20-0.6-23.2-3.2-22.2-17.6 7.4-19.2 6.6-25.6-12.4-3.8-10.6-5-19.6-5.8-39-1-23.2-0.6-26.8 4.2-44 6-21 15.2-38.8 28.2-54.6l8.6-10.6-6.8-19.8c-13.6-40.2-14.4-52.8-3-54.4 5-0.8 12.2 4.6 12.2 9.2 0 3.4 19.4 62 21.6 65.8 1.2 2 3.4 2 8.4 0.6 3.8-1 13.6-2.6 22-3.2 46.4-3.8 88.8 26 105 74 4.4 12.8 3.4 16.4-5.8 20.8l-5.2 2.6 6.6 8.4c15.2 18.8 24 41 26.6 67 1.6 16.8-1.6 24.4-10.4 24.4-3.4 0-4.8 0.8-4.2 2.6 15.8 36.4 19.4 51.6 19.4 80.8 0 23.6-2.6 29.4-12.8 28.2l-6.2-0.6v30c0 23-0.8 33.4-3.8 44.8-4.6 18-9 23-18.2 21.4l-6.6-1.2-1.4 17.4c-1.8 21.6-7.2 43.6-15 60.2-5 10.8-6.6 12.4-11.2 12.4-3 0-7.6-1.8-10-4.2l-4.4-4.2-7.4 14c-9.6 18.6-30 38.8-51.2 51-11 6.4-12.6 6.6-17.6 1.6zM506.8 722.6c12.6-10.4 24.4-26.6 28.4-39.6 3.4-10.6 3.4-10.8-1.4-21.4l-4.8-10.8-9 6.8c-5 3.8-11.4 7.8-14.4 8.8s-5.8 3.4-6.4 5.2c-4.8 16.4-7.2 58.4-3.4 58.4 1 0 5.8-3.4 11-7.4zM571 655c1.8-6.6 3.8-22.4 4.4-35l1.2-23.2-8.6-9.8c-4.8-5.6-9.2-10.2-10-10.6-2.6-1-8.8 32.2-8.6 46.6 0 7.8 1 17.6 2.2 22 2.8 9.8 12.6 25.6 14.8 23.4 0.8-0.8 2.8-6.8 4.6-13.4zM498 647c9.2-4.8 17.8-13 22.8-21.8 4.6-7.8 14.8-44.2 13-46.2-0.6-0.4-5.6 1.6-11.4 4.4-5.6 2.8-13.4 5.6-16.8 6.4-5.2 1-8 3.6-13 12-7 11.8-13.8 30.2-15.8 43.6l-1.2 8.2 8.4-1.8c4.6-1 11-3.2 14-4.8zM606 563.2c2.2-17.8 1.8-26.2-2.4-47.8-1.8-9.4-3.2-12.2-7.6-14.4-3-1.6-10.6-7.4-16.8-13.2l-11.2-10.2v6.6c-0.2 3.8-1 16-2 27.4-1.6 18-1.4 22 2 33.2 4.8 15 13 27 24.4 35.2 10.2 7.4 10.6 7 13.6-16.8zM506 567.6c25.2-7.6 39.8-32.8 40-68.4v-11.8l-8.6 8c-4.8 4.4-13 10.4-18.2 13.6-10.4 6-16.4 15.8-26 42.6-8 22.2-8 22.2 12.8 16zM506.6 492.6c3.2-1.6 9.4-6.2 13.8-10.2 22-20 28.2-47.6 19-86.4l-2.6-11-4.4 8.4c-2.4 4.6-8.6 13.6-13.8 20-5 6.2-11 15.8-13 21.2-5.2 13.6-13.6 49-13.6 57 0 6 0.4 6.6 4.6 5.2 2.4-0.6 7-2.6 10-4.2zM624.8 475.6c-2.6-27.8-11.6-54.4-23.8-70.6-2.8-3.8-7.8-7-13.6-8.6-5.2-1.6-13.4-5.4-18.6-8.6-5-3.4-9.6-5.6-10.2-5.2-0.4 0.6 1 8.8 3.2 18.4 10.2 43 28.6 72.6 53.2 85.6 10.6 5.8 11.4 5 9.8-11zM498.6 404.4c15.2-14.2 24.4-38.2 23-60.2-0.6-10.4-2.8-17.2-9.6-31.8l-8.8-18.6-4.2 11.8c-2.4 6.6-7 16-10.2 21.2-12.8 20.8-13.2 22.2-14.4 49-0.4 14-0.4 29.8 0.4 34.8l1.4 9.4 8.4-5.2c4.6-3 11-7.6 14-10.4zM618 365.4c-3.2-16.2-12.4-33.4-24.2-46.2l-10.8-11.6-15.6-0.8c-8.4-0.4-20.4-2.4-26.4-4.4-6-2.2-11-3.4-11-3 0 3.2 14.2 33.8 19.6 42.2 12.8 19.8 37 35.4 59 38.2 12.2 1.4 12.6 0.8 9.4-14.4zM458.8 332c6.2-6.6 13.8-17 16.8-23.4 4.8-10.4 5.4-13.8 5.4-33.6 0-20.2-0.6-23-5.8-34.8l-6-12.8-4.6 5.8c-13.8 17-26.4 53-26.6 75.6 0 14.6 4 35.2 7 35.2 1.2 0 7.6-5.4 13.8-12zM595.8 283c3.4-2-9.2-24.2-20.2-35.2-5.2-5.2-14.6-12-21-15.2-10.8-5.2-13.4-5.6-35-5.6-12.8 0-23.8 0.6-24.6 1.4-2.2 2 8.8 21.4 17.2 30.6 17.8 19.4 38.2 27.4 65.2 26.2 8.8-0.4 17.2-1.4 18.4-2.2zM108.4 648.8c-5.2-3.6-5.8-11.2-1.2-15.6 4.8-4.8 16-4 19.6 1.2 4.2 6 4 8.8-0.8 13.6s-11.4 5.2-17.6 0.8zM38 436.6c-1.6-0.6-5.2-3-7.6-5.4-16.6-15-12.6-39.6 8-50 8.4-4.4 19.6-50.4 19.6-81 0-26.4-5.4-49.6-19-82-7.6-18-7.4-31.4 0.6-59.2 14.6-49.4 16.4-96.4 5.6-133.8-2.6-8.4-4.4-11-10.8-14.6-19.2-10.8-19-39 0-50.6 6.4-4 9.8-4 179.6-3.6l173 0.6 6.4 4.6c8.2 5.8 13.6 19.6 11.6 29.8-1.2 7-10.8 18.4-19.4 23.6-6 3.6-10 23.8-11 57-1.2 35 1.2 52.8 11.6 89 8.2 28.4 7.6 42.6-3 66.2-10.6 24.2-13.6 37-14.6 65.2-1.2 28 0.8 43.6 8.6 69.6 4.6 15.4 6 17.6 12.4 21 20.2 11.2 21.6 37.8 2.6 50.4l-6.8 4.6-172.2-0.2c-94.8 0-173.6-0.6-175.2-1.2zM381.6 415.6c3-3 3-10.2 0-13.2-1.8-1.8-42-2.4-168.8-2.4-148.8 0-166.8 0.4-169.6 3.2-1.8 1.6-3.2 4.4-3.2 5.8s1.4 4.2 3.2 5.8c2.8 2.8 20.8 3.2 169.6 3.2 126.8 0 167-0.6 168.8-2.4zM351.2 347c-3.2-8.2-5.6-40-4.4-58 1.6-25.2 6.8-47.6 16.4-69.2 9.4-20.8 9.8-31.8 2.2-55-9.6-30-12.4-48.8-12.2-85.8 0-25 1-37.6 3.4-47.6 1.8-7.6 3.4-14 3.4-14.6 0-0.4-51.8-0.8-115.2-0.8-109 0-115.2 0.2-113.8 3.6 3 7.8 8.8 33 10.8 47.4 4.4 31.4 1.6 74.8-6.8 102-1.6 5.6-3 10.2-3 10.6 0 0.2 21.6 0.4 47.8 0.4 42.8 0 91.4 2.4 103.6 5 9 2 10.8 14.6 2.6 19-2.4 1.2-11 1.2-25.4-0.4-23.8-2.4-127.4-3.4-129.6-1.2-0.8 0.8 0.4 8.8 2.8 18 6.4 25.6 8.8 48.4 7.6 73.8-1.8 41.2-7.8 38.4 102.8 47.8 105.4 9 108.6 9 107 5zM381.6-8.4c3.6-3.6 2.8-11.2-1.4-13.6-5.2-2.6-329-2.8-334 0-5 2.6-6.6 7.4-4.2 12.2 2 3.8 6.2 3.8 169.6 3.8 127.8 0 168.2-0.6 170-2.4zM321.6 209.8c-5.2-3-4.6-13 1-16.6 6.2-4 16.8-1.8 20.8 4 2.8 4.4 2.8 5.2-0.2 9.8-2.6 3.8-5 5-10.8 5-4 0-9-1-10.8-2.2zM784.4 356.8c-3.2-2.2-4.4-5-4.4-10 0-12.4-6.2-37.2-12.2-49-10.2-20.6-23-31.6-44.6-39-5.2-1.8-10.8-5.4-12.6-8-2.8-4.4-2.8-5.2 0-9.6 2.2-3.2 6-5.2 11.4-6.2 13-2.2 30.8-12.2 41-23.2 12-12.8 18.2-26.8 21.6-47.8 2.2-14.6 3.2-17.2 7.4-19.4 8.6-4.2 12.4 0.4 16.4 19.2 6.8 32.2 24.4 56.2 51.8 70 13.8 7 14.8 8 14.8 14.2 0 7.4-1 8.2-17.6 14.2-25.6 9.2-47.4 39.2-54.4 74.8-2.2 11-4.4 17-7.2 19.6-5.2 4.2-5.8 4.2-11.4 0.2zM796.2 291.8c5-12.4 25.4-35 37.2-41.4l4.8-2.6-13-12c-7.2-6.6-16.4-17.4-20.4-24-4-6.4-7.6-11.8-8-11.8s-2.4 3.4-4.6 7.6c-6 11.6-18 24.4-30.6 32.4l-11.4 7.4 9.2 6.6c10 7.2 25 26.6 29 37 3 8.6 4.4 8.8 7.8 0.8zM626 192.2c-15.6-5-33.4-14.8-46.6-25.8-23.4-19.6-39.2-42-60.6-86.4-8.4-17-20-38.2-25.8-47-13.4-19.8-35.8-42.2-53-52.6-10.2-6.2-13.2-9-13.6-13.2-1.4-12-18-11.2 247.8-11.2s249.8-0.6 249.8 10.8c0 6-2.4 7.8-16 12.2-29.6 9.4-66.6 34-98 65-24 23.8-37.4 41.2-57.6 74-7.8 12.6-18.2 27.8-23.2 33.6-31.8 37.2-68.8 51.6-103.2 40.6zM679.6 166.6c14.2-7.2 34.8-27.6 46.4-46.4 41.6-66.6 74.8-103.8 118.6-132.6l16.2-10.6-143.8-0.6c-85.2-0.2-144.6 0.4-145.6 1.4-2.8 2.8-7.4 24-7.4 34.4 0 20.6 8.6 53.8 21.4 82.8 14.4 32.2 33.2 56.4 55.4 71.2 14.4 9.6 20.4 9.6 38.8 0.4zM662.4 125.4c-2.4-2.6-4.4-6.6-4.4-9 0-6.2 7-12.4 13.6-12.4 11.4 0 16.6 13.8 8.4 22-5.4 5.4-12.4 5-17.6-0.6zM628 88.4c-10.8-3.4-13.4-15.4-4.8-22.2 6.6-5.2 9-5.2 15.6 0 3.4 2.6 5.2 6 5.2 9.6 0 7.8-9 15-16 12.6zM688.2 66.8c-2.4-3-4.2-6.4-4.2-7.8 0-4.6 8.2-13 12.8-13 7.4 0 13.2 5.6 13.2 12.8 0 12.8-14 18-21.8 8z" />
<glyph unicode="&#xe968;" glyph-name="crypto" d="M721.2 890c-31.4-4-65.4-14-92.2-27.4-46-23-90-64.4-114-107.6l-7.4-13.2-10.6 15.4c-32.8 47.8-82.6 84.8-139.4 103.6-28 9.2-53 13.2-84.6 13.2-46 0-85.8-9.8-126.8-31.2-27.2-14-44.8-27-67.2-49.6-38-38.4-63.6-87-74.4-140.8-5.2-26.2-4.8-78.8 1-105.8 20.4-95.4 89.2-172.6 181.2-203.8 7.6-2.6 23.4-6.6 35-8.8 11.4-2.2 21.4-4.4 21.8-4.8s-0.4-6.6-1.6-13.4c-3.4-18.6-3-63.4 1-85.8 19.6-113.2 110.4-204 222.8-222.8 24.4-4.2 68-4.2 92.4 0 112.8 18.8 203 109.2 222.8 222.8 5.6 32.2 3.8 84.8-4.2 113-1 3.8 0.4 4.2 16.6 6.4 54.6 7.6 107.4 34.8 149.8 77.4 39.8 39.8 63.4 83.4 75.2 137.8 6.2 29.4 6.2 79.8 0 108.8-23.6 108.6-106.2 190.6-214.6 212.6-22.6 4.6-62.4 6.6-82.6 4zM796 852.8c70.8-13.4 132.4-59 166.2-123.4 40.6-77.6 36.2-168.8-12.2-241.8-37-56.2-94.8-94-160-104.6-10.4-1.6-20.4-3-22-3-2.4 0-9.4 12.6-17.6 32-0.2 0.8 7.4 2 17 2.6 31.4 2.2 62.6 12.2 91.6 29 22 12.8 56.6 47.4 69.4 69.4 18.4 31.8 27 60.4 29 96.2 5.2 98.2-58.4 184.4-155 210.2-16.8 4.6-23.4 5.2-50.4 5.2-27.2 0-33.4-0.6-50.8-5.2-84.4-22.4-144-92.4-154.4-180.4l-1.4-12-3.6 21c-2 11.6-6 27.6-8.8 35.8s-5 16.4-5 18.4c0 6.4 20 43.6 32 59.4 35.8 47.6 89.4 81 146.8 91.4 9 1.6 19.4 3.2 23.2 3.8 12 1.4 49.2-0.8 66-4zM307.2 837.8c86.8-12 164-75.8 191.8-158.6 11.6-34.4 15.6-77.8 10.6-111.2l-2.6-17-16.6-1.8c-9.2-0.8-17.2-1.2-17.8-0.6-0.6 0.8 0.2 7.4 1.6 14.8 4.4 21.6 3.4 64-1.8 85.2-18.6 75-75 132-150 151.6-24.4 6.6-62.2 7.2-88.4 1.8-39.6-8-72.6-25.2-100.6-51.8-29.2-28-48.6-60.6-58.6-99.2-7.2-27.2-7.6-67.2-1.2-93.4 13.2-53.8 43-97.2 86.8-126.2 28.2-18.8 60.4-30.4 90.2-32.8 13.2-1 15.4-1.8 14.4-4.4-11-29-11.6-30.2-16.8-30.2-2.8 0-13.2 1.8-23.2 3.8-94.2 19.8-165.2 91.2-186.2 187.2-4.8 22.2-4.8 70 0 92.6 21 98.4 96.4 171.8 194.2 189.2 19.6 3.4 53.4 4 74.2 1zM784 785.6c43.2-8.2 83.2-34.8 107.8-71.6 21-31.4 29.2-59.2 28.8-98-0.2-28-5-49.2-16.8-72.6-31-61.4-93.2-98.4-159.8-94.8l-19 1-21 20.6c-11.6 11.4-27.8 25.4-36.2 31.2-15 10.4-44.4 25.8-58.2 30.8-6.2 2.2-8.2 4.4-13.4 15.8-10.4 22.6-14.6 42-14.8 69-0.2 13.2 1 29.4 2.4 36 13 59.4 56.6 108 113.6 127 29.2 9.6 56.6 11.4 86.6 5.6zM300 769.8c70.8-11.2 128.6-68.2 141-138.8 5-28.6 3-56-6-83.2-3-8.8-3.8-9.6-15.6-14-47.2-17.2-91.6-49.2-120.6-87-13-16.8-16-17.8-43.8-14.6-71.6 8-130.2 59.2-147.2 128.8-6 24.4-6 59 0 82 16 60.6 63.8 108.6 123.2 123.6 21.6 5.6 47.2 6.8 69 3.2zM555.8 558.4l3.8-12.6-8.2 1.2c-4.6 0.8-8.8 1.8-9.2 2.2-0.4 0.2 0.4 8 1.6 17s2.2 20.6 2.4 25.6c0.2 8.4 0.4 7.8 2.8-5.8 1.6-8.2 4.6-20.6 6.8-27.6zM564 510.2c82.4-18.8 148.8-79.2 175-159.2 11.4-35.2 14.6-81.8 8-116.8-18.4-96.6-89.4-169.4-185-190.2-103.4-22.6-211.2 27.4-260 120.4-19.8 37.6-28 71-28 112.6 0 65.2 25 124.8 71.4 170.4 34.2 33.6 80 57.4 124.6 64.6 8.2 1.2 16.4 2.6 18 3 8.4 2.2 60.4-1.2 76-4.8zM734 712.4c0-7.4-0.2-7.4-10.4-10-34-8-50.6-43.6-34.6-74.4 4.2-8.2 19.6-21 28.6-23.6 4.4-1.4 18-2.4 30.2-2.4 25.4 0 33.2-2.6 35.6-11.6 2-7.6 0.8-12.6-4-17.8-3.8-4.2-5.8-4.6-28.4-4.6-22.8 0-24.6 0.2-28.6 4.6-2.4 2.6-4.4 6.2-4.4 8 0 3-2.4 3.4-18 3.4h-18l1.2-5.4c3-13.8 5.8-19.8 13.6-28.2 9.2-10 21-16.2 30.8-16.4 6.2 0 6.4-0.2 6.4-9v-9h34v9c0 8.8 0.2 9 6.6 9 8.8 0.2 21 6 29.2 14.2 27 27.2 15.6 74-20.6 84.8-6.2 1.8-18.4 3-32.2 3-19.4 0-23.2 0.6-27.4 4-6.4 4.8-7.8 11.8-4.4 19.8 3.4 8.2 9.4 10.2 31.8 10.2 23 0 28.2-1.8 32.2-11l3-7.2 32.8 1.2-0.6 7c-1.2 10.6-8 23.4-16.8 31-7.8 6.6-22.6 13-30 13-2.8 0-3.6 1.6-3.6 8v8h-34v-7.6zM222 695c0-7.4-0.6-9-3.6-9-2 0-5.8-2.4-8.6-5.2l-4.8-5.2-0.6-69.4c-0.6-78 0-83 11-88.2 5.6-2.6 6.6-4 6.6-10.4v-7.6h34v16h18v-16h34v9.6c0.2 9 0.6 9.6 9 14.8 24 14.6 31.6 47.4 16 70.2-4.2 6.4-4.4 7-1 11.6 10.4 14.4 12 36 4 52-4.8 9.4-17.2 21.6-23.4 23-4 1.2-4.6 2.4-4.6 12v10.8h-33.8l-0.6-8.4c-0.6-8.6-0.6-8.6-9-9.2l-8.6-0.6v18.2h-34v-9zM301.4 647.6c2.2-2.6 4.8-6.6 5.4-9 1.8-6-3.8-16.2-10-18.6-2.8-1.2-16.8-2-31-2h-25.8v34h28.6c27.2 0 29-0.2 32.8-4.4zM301.2 579.2c7.2-6 7.8-17.2 1.2-23.8-4.2-4-6.6-4.4-33.4-5l-29-0.6v34.2h27.8c26.6 0 28.2-0.2 33.4-4.8zM483.2 480c-68-10.8-124.6-52.2-154.2-113-14.8-30.2-19-47.6-20.4-82-0.8-23-0.2-31.4 3-47 8-38.4 25.4-72.4 51.2-99.6 19.2-20.2 36.2-32.8 60.2-44.6 56.4-27.4 119.6-27.8 176.8-0.8 54 25.6 91.2 69.8 109.6 130 5 16.8 5.4 20.4 5.4 54 0 30.6-0.6 38.4-4.2 51.4-20.6 73.8-75.2 128-148 146.8-22 5.8-59.2 8-79.4 4.8zM559 441c73.8-21.6 123-86.8 123-163.2 0-88.2-63.2-159.2-151.6-169.8-59.4-7.2-121.8 20.8-157.4 71-11 15.6-17.2 28-24.2 49-5.2 15.6-5.6 19.6-5.6 48-0.2 36 2.2 46.8 15.8 75.4 23.6 48.8 69 83.4 122.6 93.6 22.6 4.2 54.8 2.6 77.4-4zM504.6 412c-2.4-1-5.4-3.6-6.6-6-3.4-6.6-54-176-54-181.2 0-2.8 11.2-19.6 28-42.2 30.4-40.8 35-44.8 46-40.2 7.8 3.4 62 75.6 62 82.8 0 4.6-44.4 155.6-51.2 174.4-4.8 12.8-12.8 17-24.2 12.4zM522.6 302.6c5.2-17.4 9.4-32.2 9.4-33s-4.4 1-10 3.8l-10 5.2-10.2-5.2c-6.6-3.6-9.8-4.4-9.4-2.6 3 12.2 18.8 63.2 19.8 63.2 0.6 0 5.4-14.2 10.4-31.4zM537 220.6c-1.4-3.8-23.4-32.6-24.8-32.6-0.8 0-4.8 4.8-9.2 10.6-4.2 5.6-9.8 13.2-12.4 16.8l-4.8 6.4 13.4 9 13.4 8.8 12.6-8.2c7-4.6 12.4-9.4 11.8-10.8z" />
<glyph unicode="&#xe969;" glyph-name="indices" d="M102.4 821.76v-56.32h-15.36c-14.336 0-15.36-1.024-15.36-20.48s1.024-20.48 15.36-20.48h15.36v-97.28h-15.872c-14.848 0-15.36-1.024-13.824-18.944 1.536-16.896 3.584-19.456 15.872-20.992l13.824-1.536v-91.648h-15.36c-14.336 0-15.36-1.024-15.36-20.48s1.024-20.48 15.36-20.48h15.36v-97.28h-15.36c-14.336 0-15.36-1.536-15.36-17.92s1.024-17.92 15.36-17.92h15.36v-97.28h-15.36c-14.336 0-15.36-1.024-15.36-20.48s1.024-20.48 15.36-20.48h15.36v-97.28h-15.36c-14.336 0-15.36-1.536-15.36-17.92s1.024-17.92 15.36-17.92c13.824 0 15.36-1.536 15.36-15.36 0-14.336 1.024-15.36 20.48-15.36s20.48 1.024 20.48 15.36v15.872l94.72-3.072 1.536-13.824c1.536-12.288 4.096-14.336 18.944-14.336s17.408 2.048 18.944 14.336l1.536 13.824 94.72 3.072v-15.872c0-14.336 1.024-15.36 20.48-15.36s20.48 1.024 20.48 15.36v15.872l94.72-3.072 1.536-13.824c1.536-12.288 4.096-14.336 18.944-14.336s17.408 2.048 18.944 13.824l1.536 14.336 94.72 3.072v-15.872c0-14.336 1.024-15.36 20.48-15.36s20.48 1.024 20.48 15.36v15.872l94.72-3.072 1.536-13.824c1.536-12.288 4.096-14.336 18.944-14.336s17.408 2.048 18.944 14.336l1.536 13.824 115.2 3.072v35.328h-793.6v305.152l34.304 11.264c18.944 6.144 34.816 10.24 35.328 9.728 0-0.512 30.208-43.52 66.048-95.744s67.072-96.768 69.12-99.328c2.56-2.048 26.624 26.112 54.272 62.976l50.688 67.072h56.32l104.448 159.232c57.856 87.040 107.008 159.744 109.056 161.28s29.696-1.536 60.416-6.144l56.32-9.216 23.552 23.040c12.8 12.288 37.376 38.4 54.272 57.344l31.232 34.816-27.648 27.648-47.104-50.176-47.104-50.688-61.44 10.752c-33.28 5.632-62.464 8.704-64 6.144-1.536-2.048-49.664-75.776-107.52-163.328l-104.96-159.232-56.32-3.072-36.864-48.64c-20.48-26.624-39.424-49.152-41.984-50.176s-31.744 37.888-65.024 86.016c-32.768 47.616-62.464 87.040-65.536 87.040s-16.896-4.096-31.232-9.728c-13.824-5.12-30.72-11.264-36.864-12.8l-11.776-3.584v445.952h-40.96v-56.32zM321.536 831.488c-8.192-4.608-9.216-13.824-9.216-71.168v-66.56h-28.672c-33.792 0-48.128-6.656-48.128-22.016s146.432-187.904 159.744-187.904c10.24 0 162.816 175.104 162.816 186.88 0 15.36-15.872 23.040-46.592 23.040h-30.208v61.44c0 83.456 1.536 81.92-85.504 81.92-36.352 0-69.632-2.56-74.24-5.632zM440.32 730.624c0-44.032 2.048-67.584 6.144-71.68 3.584-3.584 14.848-6.144 25.6-6.144s19.456-1.536 19.456-3.072c0-2.56-23.040-30.72-92.672-111.104-1.536-2.56-25.6 21.504-52.736 53.76l-49.152 57.856 21.504 1.536c32.256 2.048 34.816 8.704 34.816 81.408v62.976h87.040v-65.536zM688.64 424.448c-39.424-46.592-73.728-88.064-75.776-92.16-2.048-3.584-1.536-11.776 1.536-17.408 4.608-8.704 10.752-10.24 40.96-10.24h35.84v-65.536c0-44.032 2.048-67.584 6.144-71.68 8.704-8.704 142.848-8.704 151.552 0 4.096 4.096 6.144 27.648 6.144 71.68v65.536h35.84c30.208 0 36.352 1.536 40.96 10.24 3.072 5.632 3.584 13.824 1.536 17.92-2.56 4.096-36.352 45.568-75.776 92.16-57.344 67.584-74.24 84.48-84.48 84.48-10.24-0.512-27.136-17.408-84.48-84.992zM824.32 401.92l45.056-53.76-18.432-1.536c-30.72-3.072-31.744-5.632-31.744-78.336v-66.048h-92.16v66.048c0 72.704-1.024 75.264-31.744 78.336l-18.432 1.536 46.592 55.296c25.6 30.208 48.64 54.272 51.2 53.248 2.048-0.512 24.576-25.6 49.664-54.784z" />
<glyph unicode="&#xe96a;" glyph-name="newconnect" d="M319.829 849.067c-11.947-14.677-16.384-20.821-31.061-43.008-5.12-8.192-14.336-20.139-20.139-25.941-5.803-6.144-9.557-11.264-8.192-11.264s-1.365-4.096-5.803-9.216c-7.509-8.875-23.893-30.379-38.571-52.224-3.072-4.779-8.875-12.629-12.971-17.408-3.755-5.12-9.557-12.629-12.629-17.067-10.923-15.36-53.589-73.045-56.32-76.459-5.461-6.485-43.691-58.027-55.296-75.093-6.485-9.216-13.995-19.115-16.384-21.504s-4.437-5.461-4.437-6.827c0-1.365-4.779-7.851-10.24-14.336s-10.24-12.971-10.24-13.995c0-1.024-3.755-6.144-8.533-11.264s-8.533-11.264-8.533-13.312c0-2.389 6.144-11.264 13.312-19.456 7.509-8.533 12.971-16.384 11.947-17.408-0.683-1.024 2.731-5.803 7.168-9.899 4.779-4.437 8.533-9.899 8.533-12.629 0-2.389 1.365-4.437 3.413-4.437 1.707 0 7.168-5.803 11.605-12.629 4.437-7.168 11.264-16.384 15.019-20.139 4.096-4.096 6.485-8.192 5.461-9.216-1.024-0.683 3.072-5.461 8.875-10.581 5.803-4.779 9.899-10.24 8.533-12.288-1.024-1.707 1.024-5.12 5.12-7.509 3.755-2.389 6.827-6.144 6.827-8.192s3.755-7.168 8.533-11.605c4.779-4.437 8.533-9.557 8.533-11.605s3.755-7.851 8.533-12.971c4.779-5.12 8.533-10.923 8.533-12.629s2.731-5.461 6.144-7.851c3.072-2.389 9.557-10.24 14.336-17.067 4.779-7.168 9.557-12.971 11.264-12.971 1.365 0 2.389-1.707 2.389-3.755 0-4.096 16.043-26.283 25.259-34.816 3.413-3.072 5.12-5.803 3.755-5.803-1.707 0 2.048-5.12 7.851-11.264 6.144-6.144 10.24-12.288 9.216-12.971-1.024-1.024 2.048-5.461 6.827-9.899s8.533-9.557 8.533-11.264c0-3.413 24.235-34.133 28.331-35.84 1.365-0.683 2.389-3.072 2.389-5.12 0-2.389 3.755-8.192 8.533-13.312s8.533-10.581 8.533-11.947c0-1.365 4.437-7.851 10.24-13.995 5.461-6.144 10.24-12.629 10.923-14.336 1.365-4.779 164.864-6.144 170.667-1.707 6.485 4.779 40.277 52.224 40.277 56.32 0 1.707 2.048 3.413 4.437 3.413 5.461 0 19.456-11.264 19.456-15.701 0-1.707 3.755-7.168 8.533-12.288s8.533-10.581 8.533-11.947c0.341-1.365 3.755-6.827 7.851-12.288l7.851-9.216 81.579-0.341c45.056 0 83.968 0 86.357 0 2.048 0.341 4.096 2.731 4.096 5.461s1.365 5.12 2.731 5.12c1.365 0 10.923 11.605 21.163 25.941s20.48 27.648 22.187 29.696c2.048 2.389 10.923 13.995 19.797 26.283 9.216 12.288 18.773 25.259 21.845 28.672 3.072 3.755 15.701 20.821 27.989 37.547 12.288 17.067 23.211 31.744 24.235 32.768s4.779 6.144 8.192 11.947c5.803 8.533 16.725 23.211 41.643 53.931 12.288 15.019 28.672 39.253 28.672 41.984 0 1.707-4.437 8.533-9.557 15.019-5.461 6.485-18.773 24.917-29.696 40.96-11.264 16.043-22.869 32.085-26.283 35.84-3.072 3.755-8.192 9.899-10.923 13.653-5.12 6.827-5.461 6.485-15.36-5.12-5.803-6.485-10.24-13.653-10.581-16.043 0-2.389-2.048-5.461-4.437-6.827s-14.677-17.408-27.648-35.157c-12.971-17.749-24.917-32.768-26.283-33.451-1.707-0.683-3.072-3.072-3.072-5.12 0-2.389-3.755-8.192-8.192-12.971s-15.36-19.115-24.235-32.427c-9.216-12.971-19.797-27.648-23.552-32.768-4.096-5.12-10.923-14.677-15.701-21.504s-9.899-14.336-11.947-16.384c-15.019-17.749-46.763-61.099-49.835-68.608-4.437-9.216-20.139-12.971-20.139-4.437 0 2.389-3.755 8.192-8.533 13.312s-8.533 10.581-8.533 11.947c0 1.707-3.755 6.827-8.533 11.947s-8.533 10.923-8.533 12.971c0 1.707-1.365 3.413-3.072 3.413-3.413 0-0.683 13.312 3.755 18.773 9.557 10.923 51.2 68.608 66.56 91.819 4.779 7.509 12.288 17.408 16.725 22.187s8.192 9.899 8.192 11.605c0 1.365 3.755 6.827 8.533 11.947s8.533 10.923 8.533 13.312c0 2.389 1.024 4.437 2.731 4.437 1.365 0.341 8.533 8.875 16.043 19.115 7.509 10.581 16.725 22.869 20.821 27.989 3.755 5.12 9.899 13.995 13.312 20.139 6.485 10.923 6.485 10.923-1.365 17.749-4.096 3.755-7.509 7.851-7.851 9.557 0 2.389-12.288 19.115-22.187 30.037-2.389 2.389-4.437 5.461-4.437 6.827 0 2.389-4.779 8.192-16.043 20.48-4.437 4.437-7.851 9.557-7.851 10.923 0 2.731-12.288 18.091-27.307 34.133-3.755 4.096-6.827 8.875-6.827 10.24 0 1.707-3.755 6.827-8.533 11.947s-8.533 10.24-8.533 11.605c0 1.365-6.144 9.899-13.653 18.773s-13.653 17.067-13.653 18.432c0 1.024-5.461 7.851-11.947 14.677s-11.947 14.336-11.947 16.725c0 2.048-2.389 6.485-5.461 9.216-4.437 4.779-17.067 5.461-86.357 5.461h-81.237l-12.288-16.043c-6.827-9.216-13.653-18.091-15.36-19.797-1.707-2.048-5.803-8.192-9.557-13.653-3.413-5.461-8.875-12.629-11.605-15.701-2.731-2.731-13.653-17.067-23.893-31.744s-20.139-28.331-22.187-30.72c-6.827-8.192-24.235-31.403-33.451-45.056-5.12-7.509-12.288-17.067-16.043-21.163s-6.827-8.533-6.827-9.899c0-1.707-3.755-6.827-8.533-11.947s-9.899-12.971-11.605-17.067c-2.731-7.851-0.683-11.264 26.283-41.984 3.413-3.755 7.168-9.216 8.533-11.947 7.509-15.019 35.157-51.541 40.96-53.931 1.365-0.683 2.389-3.072 2.389-5.461s3.755-7.851 8.533-12.288c4.779-4.437 8.533-9.557 8.533-11.264s4.096-8.192 9.557-14.336c23.552-27.989 27.307-33.109 33.451-46.080 1.365-2.731 6.827-9.216 11.947-14.336 5.12-4.779 10.24-12.288 11.605-16.043 1.024-4.096 3.755-7.168 5.461-7.168s3.072-6.144 3.072-13.653c0-7.509-1.365-13.653-3.413-13.653-1.707 0-7.168-5.803-11.947-12.629-4.779-7.168-12.288-18.773-17.067-25.6-4.779-7.168-10.581-12.971-12.971-12.971-4.779 0-29.696 28.331-29.696 33.792 0 1.707-4.437 6.827-9.899 11.605-5.803 4.779-9.216 9.216-8.192 10.581 1.024 1.024-2.731 6.144-8.533 11.605s-9.899 10.581-9.216 11.605c1.024 1.024-2.048 5.12-6.827 9.557s-8.533 9.557-8.533 11.264c0 1.707-3.755 7.851-8.533 13.995-4.779 5.803-9.899 12.288-11.264 13.995-17.408 23.893-22.869 31.061-25.259 31.744-1.365 0.683-2.731 3.072-2.731 5.12 0 2.389-3.755 8.192-8.533 13.312s-8.533 10.24-8.533 11.264c0 1.365-6.144 9.557-13.653 18.432s-13.653 18.091-13.653 20.48c0 2.389-1.365 3.072-3.413 2.048-1.707-1.024-3.413 0-3.413 2.389s-3.755 8.533-8.533 13.653c-4.779 5.12-8.533 10.581-8.533 12.288 0 2.048-2.389 4.096-5.12 5.461-2.731 1.024-5.12 4.096-5.12 6.485 0 2.731-3.072 7.509-7.168 11.264-9.216 8.192-18.432 29.696-13.312 31.403 1.707 0.683 3.413 3.413 3.413 6.144s1.365 4.779 2.731 4.779c1.365 0 8.533 8.533 16.043 19.115s16.725 23.211 20.821 28.331c3.755 4.779 23.552 32.085 44.032 60.075 20.48 28.331 38.229 51.883 39.936 52.224 1.365 0.683 2.731 3.072 2.731 5.803 0 2.389 2.389 6.144 5.12 8.533 2.731 2.048 18.091 22.528 34.816 45.397 16.384 22.869 30.72 42.325 31.744 43.349s7.509 9.557 13.995 18.773c6.144 9.557 12.288 17.749 13.312 18.773s10.24 13.312 20.48 27.307c9.899 13.995 19.456 26.283 21.163 26.624 1.365 0.683 2.731 3.072 2.731 5.12 0 2.389 4.779 9.216 10.24 15.701 5.803 6.144 10.24 12.629 10.24 13.653 0 1.365 3.072 5.803 6.827 9.899l6.827 7.168-160.768 2.048-10.923-13.653zM550.571 560.64c2.731-3.755 5.803-5.803 6.827-4.437 1.365 1.024 2.389 0 2.389-2.731s3.755-8.875 8.533-13.995c4.779-5.12 8.533-10.24 8.533-11.605s6.144-9.899 13.653-18.773c7.509-8.875 13.653-17.408 13.653-18.432 0-2.389 4.437-8.192 27.307-35.499 6.827-8.533 9.216-24.235 3.755-24.235-1.707 0-4.096-2.731-5.12-6.144-1.365-3.413-4.779-9.216-8.192-12.971-3.072-3.413-12.629-15.701-21.163-26.965-8.192-11.264-17.067-22.528-19.456-24.917s-4.437-5.461-4.437-6.827c0-1.365-4.096-6.827-8.875-12.629-4.779-5.461-10.923-14.336-13.653-19.456-6.827-13.312-16.725-12.288-26.624 3.413-4.437 6.827-11.264 16.043-15.36 20.139s-7.168 8.533-7.168 9.557c0 2.731-27.989 37.205-31.403 38.571-1.707 0.683-2.731 3.072-2.731 5.461s-3.755 7.851-8.533 12.288c-4.437 4.096-7.509 8.875-6.827 10.24 1.024 1.365-0.683 4.437-3.413 6.827s-5.12 6.827-5.12 9.899c0 5.803 29.355 48.811 34.816 50.859 1.365 0.683 2.731 3.072 2.731 5.461s3.755 7.851 8.533 12.288c4.779 4.437 8.533 9.899 8.533 12.629 0 2.389 1.707 4.437 3.413 4.437 2.048 0 6.144 5.461 9.216 11.947s6.827 11.947 8.533 11.947c1.365 0 4.779 4.779 7.851 10.24 6.144 11.947 12.971 12.971 19.797 3.413z" />
<glyph unicode="&#xe96b;" glyph-name="nyse" d="M44.373 442.88v-431.787h119.467v863.573h-119.467v-431.787zM208.896 443.904l1.024-431.104 59.051-1.024 58.709-0.683v863.573h-119.467l0.683-430.763zM372.053 442.88v-431.787l59.051 0.683 58.709 1.024 1.024 431.104 0.683 430.763h-119.467v-431.787zM535.893 442.88v-431.787l59.051 0.683 58.709 1.024 1.024 431.104 0.683 430.763h-119.467v-431.787zM696.32 442.88v-431.787h119.467v863.573h-119.467v-431.787zM860.16 442.88v-431.787h119.467v863.573h-119.467v-431.787z" />
<glyph unicode="&#xe96c;" glyph-name="technology" d="M298 128.667q-34 0-59-25t-25-61h596q0 36-25 61t-59 25h-172v84h128q36 0 61 25t25 61h-342q-34 0-63 17t-47 46-18 65q0 34 18 63t44 47q-18 26-18 60 0 8 1 14t3 14q-58-24-95-78t-37-120q0-58 28-107t77-78 107-29v-84h-128zM450 702.667q44 0 74-31t30-75q0-24-9-44t-27-36l26-68 40 14 14-40 80 30-14 40 40 14-116 322-42-16-14 40-80-28 14-40-40-16zM384 596.667q0 28 19 46t45 18 45-18 19-46q0-26-19-45t-45-19-45 19-19 45z" />
<glyph unicode="&#xe96d;" glyph-name="finance" d="M504 472.667q44-12 73-24t61-33 49-53 17-76q0-62-41-101t-109-51v-92h-128v92q-66 14-109 56t-47 108h94q8-90 126-90 62 0 89 23t27 53q0 72-128 104-200 46-200 176 0 58 42 99t106 55v92h128v-94q66-16 101-60t37-102h-94q-4 90-108 90-52 0-83-22t-31-58q0-58 128-92z" />
<glyph unicode="&#xe96e;" glyph-name="services" d="M590 606.667q126-26 212-123t94-227h-768q8 130 94 227t212 123q-8 16-8 34 0 36 25 60t61 24 61-24 25-60q0-18-8-34zM86 212.667h852v-84h-852v84z" />
<glyph unicode="&#xe96f;" glyph-name="automobiles" d="M214 512.667h596l-64 192h-468zM746 298.667q26 0 45 18t19 46-19 46-45 18-45-18-19-46 19-46 45-18zM278 298.667q26 0 45 18t19 46-19 46-45 18-45-18-19-46 19-46 45-18zM808 724.667l88-256v-340q0-18-12-31t-30-13h-44q-18 0-30 13t-12 31v42h-512v-42q0-18-12-31t-30-13h-44q-18 0-30 13t-12 31v340l88 256q14 44 62 44h468q48 0 62-44z" />
<glyph unicode="&#xe970;" glyph-name="energy" horiz-adv-x="513" d="M505.714 627.428c6.286-6.857 8-16.571 4-25.143l-308.571-661.143c-4.571-8.571-13.714-14.286-24-14.286-2.286 0-5.143 0.571-8 1.143-12.571 4-20 16-17.143 28l112.571 461.714-232-57.714c-2.286-0.571-4.571-0.571-6.857-0.571-6.286 0-13.143 2.286-17.714 6.286-6.857 5.714-9.143 14.286-7.429 22.286l114.857 471.429c2.857 10.857 13.143 18.286 25.143 18.286h187.429c14.286 0 25.714-10.857 25.714-24 0-3.429-1.143-6.857-2.857-10.286l-97.714-264.571 226.286 56c2.286 0.571 4.571 1.143 6.857 1.143 7.429 0 14.286-3.429 19.429-8.571z" />
</font>
</defs>
</svg>
